<?xml version="1.0" encoding="iso-8859-1"?>
<!-- Uploaded to: SVG Repo, www.svgrepo.com, Generator: SVG Repo Mixer Tools -->
<svg version="1.1" id="Layer_1" xmlns="http://www.w3.org/2000/svg" xmlns:xlink="http://www.w3.org/1999/xlink" 
	 viewBox="0 0 511.997 511.997" xml:space="preserve">
<path style="fill:#E44F50;" d="M174.221,502.321H98.639c-3.159,0-5.721-2.562-5.721-5.721V179.611h81.302V502.321z"/>
<rect x="140.665" y="179.614" style="fill:#DD263D;" width="33.553" height="322.706"/>
<rect x="92.916" y="233.57" style="fill:#FBD6DB;" width="81.302" height="198.739"/>
<rect x="174.218" y="75.405" style="fill:#F5BA3D;" width="81.302" height="426.915"/>
<rect x="255.521" y="123.58" style="fill:#49C158;" width="81.302" height="378.74"/>
<rect x="92.916" y="218.51" style="fill:#DD263D;" width="81.302" height="15.056"/>
<rect x="221.967" y="75.405" style="fill:#EF9325;" width="33.553" height="426.915"/>
<rect x="303.27" y="123.58" style="fill:#00AF64;" width="33.553" height="378.74"/>
<rect x="92.916" y="432.309" style="fill:#DD263D;" width="81.302" height="15.056"/>
<g>
	<rect x="140.665" y="218.51" style="fill:#B51622;" width="33.553" height="15.056"/>
	<rect x="140.665" y="432.309" style="fill:#B51622;" width="33.553" height="15.056"/>
</g>
<rect x="140.665" y="233.57" style="fill:#EDC3CE;" width="33.553" height="198.739"/>
<path style="fill:#588EED;" d="M412.406,502.321h-75.582V101.798h81.302V496.6C418.128,499.759,415.566,502.321,412.406,502.321z"/>
<path style="fill:#447BCC;" d="M384.63,101.798V496.6c0,3.159-3.022,5.721-6.751,5.721h33.498c3.728,0,6.751-2.562,6.751-5.721
	V101.798H384.63z"/>
<path style="fill:#DD263D;" d="M174.543,179.611H93.241l33.659-61.577c3.022-5.529,10.963-5.529,13.984,0L174.543,179.611z"/>
<path style="fill:#EF9325;" d="M255.846,75.402h-81.302l33.659-61.577c3.022-5.529,10.963-5.529,13.984,0L255.846,75.402z"/>
<path style="fill:#00AF64;" d="M336.826,123.581h-81.302l33.659-61.577c3.022-5.529,10.963-5.529,13.984,0L336.826,123.581z"/>
<rect x="174.218" y="233.57" style="fill:#F9F9D7;" width="81.302" height="198.739"/>
<g>
	<rect x="174.218" y="218.51" style="fill:#F47D20;" width="81.302" height="15.056"/>
	<rect x="174.218" y="432.309" style="fill:#F47D20;" width="81.302" height="15.056"/>
</g>
<rect x="255.521" y="233.57" style="fill:#E0F7DA;" width="81.302" height="198.739"/>
<g>
	<rect x="255.521" y="218.51" style="fill:#00AF64;" width="81.302" height="15.056"/>
	<rect x="255.521" y="432.309" style="fill:#00AF64;" width="81.302" height="15.056"/>
</g>
<rect x="336.823" y="233.57" style="fill:#D0DDF4;" width="81.302" height="198.739"/>
<g>
	<rect x="336.823" y="218.51" style="fill:#447BCC;" width="81.302" height="15.056"/>
	<rect x="336.823" y="432.309" style="fill:#447BCC;" width="81.302" height="15.056"/>
	<path style="fill:#447BCC;" d="M418.128,101.798h-81.302l33.659-61.577c3.022-5.529,10.963-5.529,13.984,0L418.128,101.798z"/>
</g>
<g>
	<rect x="221.967" y="218.51" style="fill:#DD6B1F;" width="33.553" height="15.056"/>
	<rect x="221.967" y="432.309" style="fill:#DD6B1F;" width="33.553" height="15.056"/>
</g>
<rect x="221.967" y="233.57" style="fill:#EFECCA;" width="33.553" height="198.739"/>
<g>
	<rect x="303.27" y="218.51" style="fill:#009652;" width="33.553" height="15.056"/>
	<rect x="303.27" y="432.309" style="fill:#009652;" width="33.553" height="15.056"/>
</g>
<rect x="303.27" y="233.57" style="fill:#CBE5C6;" width="33.553" height="198.739"/>
<g>
	<rect x="384.572" y="218.51" style="fill:#447BCC;" width="33.553" height="15.056"/>
	<rect x="384.572" y="432.309" style="fill:#447BCC;" width="33.553" height="15.056"/>
</g>
<rect x="384.572" y="233.57" style="fill:#BACAE0;" width="33.553" height="198.739"/>
<path d="M418.128,216.366c-5.345,0-9.679,4.334-9.679,9.679v266.598h-61.945V123.581v-12.104h61.945v31.329
	c0,5.345,4.334,9.679,9.679,9.679s9.679-4.334,9.679-9.679v-41.007c0-1.604-0.418-3.242-1.189-4.647l-33.655-61.573
	c-3.097-5.664-9.031-9.183-15.486-9.183s-12.389,3.519-15.486,9.183l-31.119,56.931l-19.212-35.148
	c-3.097-5.664-9.031-9.183-15.486-9.183s-12.389,3.519-15.486,9.183l-15.486,28.333V75.403c0-1.604-0.418-3.242-1.189-4.647
	L230.357,9.183C227.26,3.519,221.326,0,214.871,0s-12.389,3.519-15.486,9.183l-33.655,61.572c-0.772,1.405-1.189,3.043-1.189,4.647
	v66.322l-15.486-28.333c-3.097-5.664-9.031-9.183-15.486-9.183s-12.389,3.519-15.486,9.183l-33.655,61.572
	c-0.772,1.405-1.189,3.043-1.189,4.647v316.988c0,8.492,6.908,15.4,15.4,15.4h75.582h81.302h81.302h75.582
	c8.492,0,15.4-6.908,15.4-15.4V226.045C427.807,220.7,423.473,216.366,418.128,216.366z M377.477,47.608l24.33,44.511h-48.66
	L377.477,47.608z M133.57,125.423l24.33,44.511h-48.66L133.57,125.423z M164.542,492.642h-61.945V189.291h61.945V492.642z
	 M214.872,21.213l24.33,44.511h-48.66L214.872,21.213z M245.844,123.581v369.061H183.9v-313.03v-94.53h61.945V123.581z
	 M296.174,69.391l24.33,44.511h-48.66L296.174,69.391z M327.147,492.642h-61.945V133.26h61.945V492.642z"/>
<circle cx="133.567" cy="298.548" r="9.679"/>
<circle cx="133.567" cy="331.662" r="9.679"/>
<circle cx="133.567" cy="364.79" r="9.679"/>
<circle cx="214.869" cy="298.548" r="9.679"/>
<circle cx="214.869" cy="331.662" r="9.679"/>
<circle cx="214.869" cy="364.79" r="9.679"/>
<circle cx="296.172" cy="298.548" r="9.679"/>
<circle cx="296.172" cy="331.662" r="9.679"/>
<circle cx="296.172" cy="364.79" r="9.679"/>
<circle cx="378.765" cy="298.548" r="9.679"/>
<circle cx="378.765" cy="331.662" r="9.679"/>
<circle cx="378.765" cy="364.79" r="9.679"/>
<circle cx="419.08" cy="178.71" r="9.679"/>
</svg>