<?xml version="1.0" encoding="iso-8859-1"?>
<!-- Uploaded to: SVG Repo, www.svgrepo.com, Generator: SVG Repo Mixer Tools -->
<svg height="800px" width="800px" version="1.1" id="Layer_1" xmlns="http://www.w3.org/2000/svg" xmlns:xlink="http://www.w3.org/1999/xlink" 
	 viewBox="0 0 511.995 511.995" xml:space="preserve">
<path style="fill:#C8C6CD;" d="M52.046,511.435c-2.074-0.731-3.914-2.159-5.138-4.188c-2.798-4.642-1.304-10.672,3.337-13.469
	c19.444-11.72,31.102-24.959,34.654-39.35c2.689-10.895,0.277-20.048-2.517-30.644c-3.029-11.487-6.459-24.504-3.568-41.066
	c3.413-19.537,14.445-37.552,32.788-53.548c4.083-3.561,10.279-3.14,13.844,0.946c3.562,4.083,3.139,10.282-0.946,13.844
	c-14.867,12.965-23.733,27.14-26.353,42.134c-2.155,12.333,0.451,22.219,3.211,32.686c3.187,12.09,6.483,24.59,2.594,40.349
	c-4.846,19.636-19.508,36.948-43.576,51.455C57.765,512.16,54.714,512.374,52.046,511.435z"/>
<path style="fill:#F9DE8F;" d="M256.635,128.85L111.041,291.572c-13.31,14.876-12.681,37.561,1.434,51.676l0,0
	c14.115,14.115,36.799,14.744,51.676,1.434l162.721-145.594L256.635,128.85z"/>
<path style="fill:#F7CF6D;" d="M286.912,95.01l-30.277,33.84c6.013,15.478,15.257,29.99,27.754,42.485
	c12.494,12.494,27.007,21.74,42.485,27.754l33.84-30.277L286.912,95.01z"/>
<circle style="fill:#F09EA0;" cx="368.671" cy="85.391" r="85.391"/>
<path style="fill:#EF8990;" d="M417.429,157.786L298.616,33.313c-2.466-2.583-2.371-6.676,0.213-9.141l11.939-11.396
	c2.583-2.466,6.676-2.371,9.141,0.213l118.813,124.474c2.466,2.583,2.371,6.676-0.213,9.141l-11.939,11.396
	C423.986,160.466,419.894,160.37,417.429,157.786z"/>
<g>
	<circle style="fill:#F09EA0;" cx="99.84" cy="32.825" r="16.126"/>
	<circle style="fill:#F09EA0;" cx="83.715" cy="201.436" r="16.126"/>
</g>
<path style="fill:#88E2E2;" d="M115.965,116.03c-5.809,0-10.525-4.716-10.525-10.525c0-5.809,4.715-10.525,10.525-10.525
	s10.525,4.716,10.525,10.525C126.49,111.313,121.775,116.03,115.965,116.03z"/>
<path style="fill:#F9DE8F;" d="M214.9,31.863l5.457,11.058c0.119,0.242,0.351,0.409,0.616,0.449l12.202,1.773
	c0.672,0.098,0.941,0.924,0.454,1.397l-8.83,8.607c-0.194,0.188-0.281,0.459-0.235,0.725l2.084,12.153
	c0.115,0.669-0.587,1.18-1.188,0.863l-10.914-5.738c-0.238-0.126-0.523-0.126-0.763,0l-10.914,5.738
	c-0.601,0.315-1.303-0.195-1.188-0.863l2.084-12.153c0.046-0.266-0.043-0.536-0.235-0.725l-8.83-8.607
	c-0.487-0.474-0.218-1.299,0.454-1.397l12.202-1.773c0.267-0.039,0.497-0.207,0.616-0.449l5.457-11.058
	C213.731,31.255,214.599,31.255,214.9,31.863z"/>
<path style="fill:#88E2E2;" d="M302.852,260.669c-6.819,1.091-11.835,6.974-11.835,13.881v44.202v94.623
	c-5.798-2.843-12.391-4.316-19.36-3.977c-20.727,1.007-37.307,18.218-37.583,38.967c-0.294,22.092,17.526,40.094,39.551,40.094
	c21.846,0,39.555-17.709,39.555-39.555c0-0.046-0.004-0.092-0.004-0.137h0.051V327.181c0-6.906,5.016-12.788,11.835-13.881
	l108.191-17.322c5.788-0.926,11.033,3.544,11.033,9.407v76.33c-5.794-2.831-12.379-4.294-19.338-3.951
	c-20.23,0.996-36.611,17.449-37.519,37.682c-1.018,22.674,17.064,41.377,39.513,41.377c21.772,0,39.43-17.592,39.549-39.336h0.005
	V290.656v-45.014c0-5.862-5.244-10.334-11.033-9.407L302.852,260.669z"/>
<g>
	<path style="fill:#59D3C4;" d="M423.268,295.98l-108.191,17.322c-6.819,1.091-11.835,6.974-11.835,13.881v121.585h-0.051
		c0,0.046,0.004,0.092,0.004,0.137c0,20.153-15.075,36.773-34.561,39.229c1.637,0.207,3.301,0.324,4.992,0.324
		c21.846,0,39.555-17.709,39.555-39.555c0-0.046-0.004-0.092-0.004-0.137h0.051V327.181c0-6.906,5.016-12.788,11.835-13.881
		l103.625-16.59C427.055,295.97,425.195,295.671,423.268,295.98z"/>
	<path style="fill:#59D3C4;" d="M455.464,236.236l-4.567,0.731c3.273,1.482,5.613,4.765,5.613,8.675v45.014v126.831h-0.005
		c-0.109,20.053-15.139,36.563-34.554,39.012c1.637,0.207,3.299,0.324,4.992,0.324c21.772,0,39.43-17.592,39.549-39.336h0.005
		V290.656v-45.014C466.497,239.781,461.254,235.31,455.464,236.236z"/>
	<circle style="fill:#59D3C4;" cx="271.374" cy="440.013" r="12.348"/>
	<circle style="fill:#59D3C4;" cx="249.212" cy="442.944" r="3.938"/>
	<circle style="fill:#59D3C4;" cx="424.927" cy="408.274" r="12.348"/>
	<circle style="fill:#59D3C4;" cx="403.379" cy="411.846" r="3.938"/>
</g>
</svg>