<?xml version="1.0" encoding="iso-8859-1"?>
<!-- Uploaded to: SVG Repo, www.svgrepo.com, Generator: SVG Repo Mixer Tools -->
<svg height="800px" width="800px" version="1.1" id="Layer_1" xmlns="http://www.w3.org/2000/svg" xmlns:xlink="http://www.w3.org/1999/xlink" 
	 viewBox="0 0 511.998 511.998" xml:space="preserve">
<path style="fill:#F0DF9E;" d="M212.03,389.444v40.263h43.969h43.969v-40.263c-24.158,0-43.744-19.586-43.744-43.734l37.904-53.56
	c3.762-5.301,1.91-12.118-2.875-15.275c0,0,0.865-105.66,56.964-105.66c72.675,0,72.249,99.45,72.249,99.45l22.17,3.268
	c9.636,1.427,18.296,4.672,25.819,9.266c34.715,21.204,45.182,71.182,14.836,104.312c-50.55,55.166-127.482,113.275-227.291,113.275
	S79.259,442.679,28.708,387.512C-1.638,354.381,8.829,304.403,43.544,283.2c7.525-4.594,16.184-7.839,25.819-9.266l22.17-3.268
	c0,0-0.427-99.45,72.249-99.45c55.705,0,56.829,104.279,56.839,105.739c-4.694,3.201-6.48,9.939-2.752,15.196l37.904,53.56
	C255.775,369.857,236.189,389.444,212.03,389.444z"/>
<path style="fill:#6E5B3F;" d="M406.123,134.884c-10.175-9.187-21.383-17.441-33.446-24.606
	c37.489-39.163,61.052-65.914,75.753-83.748c9.019-10.927,26.797-5.133,27.572,9.019c2.415,43.632,0.449,111.635-29.514,150.045
	C436.143,166.724,422.453,149.619,406.123,134.884z"/>
<path style="fill:#A3875E;" d="M139.321,110.277c33.491-19.912,73.585-31.503,116.678-31.503s83.187,11.59,116.678,31.503
	c12.062,7.165,23.27,15.42,33.446,24.606c16.33,14.734,30.02,31.84,40.364,50.708c14.062,25.64,21.968,54.526,21.968,85.074
	c0,2.37,0.09,10.186,0,12.533c-7.525-4.594-16.184-7.839-25.819-9.266l-22.17-3.268c0,0,0.427-99.45-72.249-99.45
	c-56.098,0-56.964,105.66-56.964,105.66c-1.662-1.101-3.672-1.752-5.93-1.752h-29.1h-0.449h-29.1c-2.314,0-4.369,0.685-6.054,1.831
	c-0.011-1.46-1.134-105.739-56.839-105.739c-72.675,0-72.249,99.45-72.249,99.45l-22.17,3.268
	c-9.636,1.427-18.296,4.672-25.819,9.266c-0.09-2.347,0-10.164,0-12.533c0-30.548,7.906-59.434,21.968-85.074
	c10.344-18.868,24.034-35.972,40.364-50.708C116.051,125.697,127.259,117.442,139.321,110.277z"/>
<path style="fill:#FFF3E6;" d="M299.969,389.444v40.263h-43.969v-83.996h0.225C256.224,369.857,275.81,389.444,299.969,389.444z"/>
<path style="fill:#FBB0AD;" d="M220.622,276.955c1.685-1.146,3.74-1.831,6.054-1.831h29.1h0.449h29.1
	c2.257,0,4.267,0.651,5.93,1.752c4.785,3.156,6.637,9.974,2.875,15.275l-37.904,53.56h-0.225h-0.225l-37.904-53.56
	C214.142,286.894,215.927,280.156,220.622,276.955z"/>
<path style="fill:#FFF3E6;" d="M255.999,345.711v83.996H212.03v-40.263c24.158,0,43.744-19.586,43.744-43.734h0.225V345.711z"/>
<path style="fill:#6E5B3F;" d="M105.876,134.884c-16.33,14.734-30.02,31.84-40.364,50.708
	C35.548,147.182,33.582,79.179,35.998,35.547c0.774-14.151,18.554-19.946,27.572-9.019c14.701,17.834,38.264,44.587,75.753,83.748
	C127.259,117.442,116.051,125.697,105.876,134.884z"/>
<path d="M32.729,273.567c-0.009,1.387-0.016,2.7-0.021,3.924c-17.314,12.572-28.837,31.696-31.905,53.393
	c-3.33,23.549,3.752,46.25,19.942,63.927c30.568,33.361,63.485,60.087,97.835,79.438c43.982,24.777,90.217,37.341,137.419,37.341
	c53.048,0,104.689-15.812,153.487-46.997c5.027-3.213,6.498-9.891,3.286-14.918c-3.212-5.027-9.89-6.498-14.917-3.286
	c-45.269,28.929-92.996,43.598-141.855,43.598c-98.142,0-173.442-59.694-219.326-109.769c-11.747-12.826-16.89-29.272-14.481-46.31
	c2.424-17.141,12.511-32.651,26.979-41.489c6.567-4.009,13.893-6.634,21.767-7.799l22.17-3.267
	c5.308-0.783,9.236-5.355,9.226-10.719c-0.001-0.49,0.199-49.345,25.099-74.289c9.624-9.641,21.512-14.327,36.348-14.327
	c38.576,0,44.888,72.088,45.867,90.642c-2.136,2.759-3.623,6.017-4.247,9.494c-1.025,5.707,0.273,11.477,3.651,16.237l35.76,50.532
	c-1.62,16.658-15.703,29.723-32.785,29.723c-8.791,0-17.383-1.709-25.526-5.073c-8.141-3.373-15.423-8.239-21.623-14.441
	l-1.943-1.954c-4.207-4.23-11.046-4.248-15.275-0.041c-4.23,4.207-4.248,11.045-0.042,15.275l1.963,1.973
	c8.237,8.238,17.875,14.678,28.659,19.149c7.418,3.065,15.117,5.064,22.985,6.03v30.146c0,5.964,4.836,10.801,10.801,10.801h43.969
	h43.969c5.965,0,10.801-4.837,10.801-10.801v-30.146c7.869-0.967,15.57-2.967,22.995-6.034
	c10.774-4.466,20.412-10.907,28.669-19.164l1.943-1.954c4.207-4.23,4.187-11.068-0.042-15.275c-4.23-4.208-11.068-4.19-15.275,0.041
	l-1.923,1.933c-6.221,6.222-13.502,11.088-21.633,14.457c-8.152,3.369-16.745,5.077-25.535,5.077
	c-17.081,0-31.165-13.065-32.785-29.723l35.753-50.519c3.421-4.82,4.71-10.647,3.63-16.41c-0.653-3.487-2.171-6.739-4.332-9.48
	c1.009-18.778,7.416-90.496,45.982-90.496c14.836,0,26.726,4.686,36.348,14.327c24.9,24.946,25.1,73.799,25.099,74.276
	c-0.023,5.375,3.909,9.949,9.226,10.733l22.163,3.266c7.881,1.166,15.208,3.791,21.771,7.799
	c14.472,8.839,24.559,24.349,26.983,41.49c2.409,17.037-2.734,33.484-14.48,46.307c-10.391,11.341-21.211,22.015-32.155,31.724
	c-4.463,3.959-4.871,10.785-0.913,15.246c2.134,2.406,5.102,3.633,8.084,3.633c2.548,0,5.107-0.896,7.163-2.722
	c11.5-10.2,22.855-21.401,33.748-33.291c16.188-17.673,23.27-40.376,19.94-63.925c-3.067-21.696-14.59-40.818-31.905-53.393
	c-0.004-1.223-0.012-2.537-0.021-3.924c-0.008-1.222-0.015-2.263-0.015-2.901c0-29.441-6.769-57.725-20.11-84.185
	c27.375-40.538,30.261-104.184,27.64-151.526c-0.597-10.908-7.693-20.16-18.077-23.574c-10.409-3.421-21.639-0.175-28.614,8.277
	c-16.898,20.499-40.229,46.402-69.411,77.064c-27.491-14.967-58.06-24.302-89.852-27.502l34.781-34.773
	c4.219-4.218,4.219-11.057,0.001-15.276s-11.056-4.219-15.275-0.002L266.797,52.7V11.21c0-5.964-4.836-10.801-10.801-10.801
	s-10.801,4.837-10.801,10.801v41.492L211.659,19.17c-4.218-4.216-11.057-4.216-15.275,0.002c-4.218,4.218-4.217,11.057,0.001,15.276
	l34.781,34.773c-31.793,3.2-62.362,12.535-89.852,27.502c-29.183-30.661-52.514-56.565-69.416-77.068
	C64.928,11.21,53.699,7.96,43.289,11.384c-10.384,3.414-17.48,12.667-18.077,23.567c-2.62,47.348,0.266,110.995,27.641,151.532
	c-13.341,26.46-20.11,54.744-20.11,84.185C32.743,271.304,32.737,272.345,32.729,273.567z M222.831,399.168
	c8.289-1.671,15.896-5.233,22.367-10.206v29.944h-22.367V399.168z M289.168,399.168v19.738H266.8v-29.944
	C273.271,393.934,280.879,397.496,289.168,399.168z M255.999,327.33l-29.298-41.405h29.073c0.076,0,0.149-0.01,0.225-0.011
	c0.076,0.001,0.149,0.011,0.225,0.011l29.075,0.004L255.999,327.33z M430.855,261.28c-1.337-17.704-7.003-56.096-30.936-80.13
	c-13.699-13.757-31.094-20.733-51.702-20.733c-53.691,0-64.844,73.752-67.158,103.908h-24.834c-0.076,0-0.149,0.01-0.225,0.011
	c-0.076-0.001-0.149-0.011-0.225-0.011H230.82c-2.308-30.226-13.435-103.908-67.036-103.908c-20.609,0-38.004,6.976-51.702,20.733
	c-23.932,24.035-29.599,62.428-30.936,80.13l-13.363,1.969c-4.598,0.682-9.055,1.753-13.37,3.161
	c0.667-26.467,7.557-51.861,20.527-75.542c0.011-0.021,0.022-0.041,0.032-0.062c0.004-0.008,0.008-0.015,0.012-0.023
	c9.7-17.695,22.529-33.804,38.131-47.883c9.652-8.713,20.325-16.566,31.727-23.339c32.994-19.616,71.432-29.986,111.159-29.986
	s78.164,10.37,111.161,29.988c11.399,6.772,22.074,14.624,31.727,23.341c15.6,14.076,28.428,30.185,38.129,47.881
	c0.004,0.008,0.008,0.015,0.012,0.023c0.011,0.021,0.021,0.04,0.032,0.06c12.97,23.681,19.859,49.075,20.527,75.542
	c-4.316-1.409-8.777-2.481-13.378-3.164L430.855,261.28z M456.76,33.403c1.882-2.279,4.265-1.808,5.203-1.5
	c1.149,0.378,3.101,1.43,3.254,4.24c1.844,33.315,1.433,90.893-18.514,129.06c-7.4-11.015-15.951-21.363-25.569-30.95l29.417-33.097
	c3.963-4.459,3.561-11.286-0.899-15.249c-4.456-3.962-11.284-3.56-15.249,0.898l-29.307,32.974
	c-4.986-4.064-10.185-7.914-15.55-11.555C417.583,78.667,440.177,53.521,456.76,33.403z M46.781,36.137
	c0.154-2.804,2.105-3.856,3.254-4.234c0.938-0.308,3.321-0.78,5.198,1.495c16.588,20.124,39.185,45.274,67.217,74.827
	c-5.366,3.641-10.565,7.49-15.55,11.555L77.595,86.806c-3.963-4.459-10.791-4.859-15.249-0.898
	c-4.459,3.963-4.86,10.79-0.899,15.249l29.417,33.097c-9.618,9.587-18.17,19.935-25.569,30.949
	C45.349,127.037,44.938,69.458,46.781,36.137z"/>
<path d="M155.281,266.372c5.055,0,9.168,4.118,9.168,9.18c0,5.964,4.836,10.801,10.801,10.801c5.965,0,10.801-4.837,10.801-10.801
	c0-16.974-13.803-30.781-30.769-30.781c-16.972,0-30.781,13.808-30.781,30.781c0,5.964,4.836,10.801,10.801,10.801
	c5.965,0,10.801-4.837,10.801-10.801C146.101,270.49,150.219,266.372,155.281,266.372z"/>
<path d="M422.113,429.346c-0.489,0.376-0.98,0.75-1.471,1.123c-4.751,3.606-5.679,10.381-2.073,15.133
	c2.125,2.8,5.349,4.272,8.611,4.272c2.276,0,4.57-0.717,6.523-2.199c0.528-0.401,1.056-0.803,1.581-1.208
	c4.728-3.637,5.612-10.418,1.975-15.145C433.622,426.593,426.843,425.707,422.113,429.346z"/>
<path d="M356.718,244.77c-16.966,0-30.769,13.808-30.769,30.781c0,5.964,4.836,10.801,10.801,10.801s10.801-4.837,10.801-10.801
	c0-5.062,4.113-9.18,9.168-9.18c5.061,0,9.18,4.118,9.18,9.18c0,5.964,4.836,10.801,10.801,10.801
	c5.965,0,10.801-4.837,10.801-10.801C387.498,258.579,373.691,244.77,356.718,244.77z"/>
</svg>