<svg xmlns="http://www.w3.org/2000/svg"  viewBox="0 0 64 64" width="64px" height="64px"><path fill="#a2a2ea" d="M57.43,15.99c-1-3.57-2.99-6.38-5.9-8.38c-3.68-2.52-7.9-3.41-11.56-3.95 c-5.05-0.75-9.63-0.86-13.99-0.33c-4.09,0.5-7.17,1.29-9.98,2.58c-5.5,2.51-8.8,6.58-9.82,12.1c-0.48,2.67-0.82,5.09-1.01,7.4 C4.73,30.74,5.13,35.46,6.4,39.84c0.62,2.15,1.48,4,2.6,5.55c1.08,1.53,2.4,2.77,3.98,3.76c3.05,2.1,6.48,2.14,6.48,2.49 c-0.04,3.03-1.59,10.18-1.59,10.18S24,59,28.47,53.58l0.28-0.31c0.35-0.39,0.35-0.39,0.71-0.4c2.73-0.05,5.52-0.16,8.29-0.31 c3.36-0.18,7.26-0.5,10.92-2.02c3.34-1.39,5.79-3.59,7.26-6.54c0.01-0.01,0.01-0.03,0.02-0.04c1.53-3.09,2.45-6.45,2.79-10.25 C59.34,27.03,58.91,21.23,57.43,15.99z"/><path fill="#9595ce" d="M55.93,44c-1.47,2.95-3.92,5.15-7.26,6.54c-3.66,1.52-7.56,1.84-10.92,2.02 c-2.77,0.15-5.56,0.26-8.29,0.31c-0.36,0.01-0.36,0.01-0.71,0.4l-0.28,0.31C24,59,17.87,61.82,17.87,61.82s1.55-7.15,1.59-10.18 c0-0.35-3.43-0.39-6.48-2.49c-1.58-0.99-2.9-2.23-3.98-3.76V44H55.93z"/><path fill="#f9e3ae" d="M46.351,41.975c-0.841,1.367-2.1,2.313-3.582,2.929c-1.083,0.45-2.188,0.355-3.256-0.095 c-8.959-3.77-15.982-9.712-20.626-18.252c-0.957-1.758-1.623-3.675-2.385-5.534c-0.157-0.382-0.147-0.831-0.215-1.248 c0.066-3.005,2.383-4.694,4.723-5.207c0.895-0.197,1.686,0.118,2.35,0.748c1.836,1.743,3.288,3.763,4.382,6.03 c0.48,0.994,0.264,1.875-0.553,2.614c-0.168,0.153-0.346,0.297-0.528,0.433c-1.859,1.391-2.133,2.442-1.142,4.536 c1.688,3.562,4.487,5.954,8.111,7.437c0.955,0.391,1.854,0.198,2.583-0.572c0.098-0.104,0.208-0.202,0.28-0.321 c1.428-2.369,3.5-2.134,5.412-0.783c1.256,0.889,2.478,1.823,3.72,2.73C47.518,38.804,47.501,40.103,46.351,41.975z"/><path fill="#8d6c9f" d="M58.396,15.715L58.396,15.715c-1.068-3.794-3.188-6.799-6.3-8.929 c-3.843-2.634-8.21-3.561-11.976-4.119c-5.143-0.763-9.806-0.869-14.26-0.328C21.661,2.851,18.493,3.672,15.589,5 c-5.82,2.658-9.315,6.974-10.387,12.826c-0.495,2.697-0.83,5.15-1.025,7.5c-0.451,5.458-0.039,10.296,1.26,14.789 c1.305,4.515,3.601,7.748,6.98,9.86c2.2,1.515,4.569,2.031,5.842,2.308c0.055,0.013,0.112,0.024,0.17,0.037 c-0.218,3.188-1.526,9.223-1.54,9.288c-0.081,0.371,0.055,0.755,0.351,0.992c0.181,0.146,0.403,0.221,0.626,0.221 c0.142,0,0.284-0.03,0.418-0.092c0.259-0.119,6.394-2.98,10.937-8.482l0.28-0.313c0.021-0.023,0.04-0.045,0.057-0.065 c2.688-0.054,5.463-0.157,8.249-0.308c3.444-0.187,7.438-0.519,11.249-2.102c3.586-1.489,6.207-3.861,7.789-7.052 c1.59-3.208,2.535-6.677,2.889-10.605C60.344,26.995,59.907,21.078,58.396,15.715z M57.742,33.623 c-0.284,3.16-1.001,5.981-2.127,8.608C55.444,42.094,55.236,42,55,42c-0.552,0-1,0.447-1,1v2c0,0.067,0.026,0.126,0.038,0.189 c-1.375,1.917-3.296,3.404-5.749,4.422c-3.519,1.462-7.312,1.774-10.59,1.952c-2.791,0.15-5.571,0.254-8.261,0.307 c-0.73,0.014-0.975,0.215-1.434,0.737l-0.3,0.337c-2.804,3.396-6.325,5.757-8.428,6.985c0.471-2.386,1.158-6.205,1.183-8.281 c0.01-0.931-0.857-1.119-1.775-1.319c-1.218-0.265-3.257-0.709-5.17-2.024c-1.381-0.864-2.546-1.952-3.523-3.26 C9.992,45.029,10,45.016,10,45v-2c0-0.553-0.448-1-1-1c-0.252,0-0.477,0.102-0.652,0.256c-0.379-0.834-0.711-1.729-0.99-2.695 c-1.23-4.256-1.619-8.858-1.188-14.069c0.19-2.283,0.517-4.672,0.999-7.304c0.948-5.173,4.061-8.997,9.252-11.369 c2.709-1.239,5.696-2.008,9.682-2.494C27.876,4.108,29.687,4,31.553,4c2.63,0,5.372,0.215,8.274,0.646 c3.54,0.525,7.632,1.387,11.14,3.791c2.715,1.858,4.567,4.489,5.505,7.82c0,0.001,0,0.001,0,0.001 C57.915,21.382,58.33,27.062,57.742,33.623z"/><path fill="#8d6c9f" d="M46.213,36.613c-0.468-0.342-0.934-0.688-1.399-1.033c-0.773-0.574-1.546-1.148-2.333-1.705 c-1.399-0.989-2.792-1.374-4.03-1.116c-1.131,0.237-2.078,0.977-2.801,2.177c-0.024,0.031-0.054,0.059-0.082,0.087 c-0.004,0.005-0.078,0.08-0.082,0.085c-0.444,0.468-0.901,0.571-1.478,0.333c-3.588-1.469-6.069-3.738-7.586-6.938 c-0.788-1.665-0.655-2.19,0.837-3.308c0.209-0.157,0.412-0.32,0.601-0.492c1.155-1.045,1.44-2.426,0.782-3.79 c-1.159-2.4-2.704-4.526-4.594-6.321c-0.961-0.912-2.086-1.259-3.252-0.999c-2.491,0.546-5.428,2.486-5.509,6.162 c-0.001,0.062,0.003,0.122,0.013,0.184c0.019,0.113,0.03,0.229,0.042,0.346c0.034,0.34,0.073,0.725,0.235,1.12 c0.191,0.465,0.375,0.934,0.56,1.402c0.554,1.406,1.127,2.861,1.872,4.229c3.547,6.523,8.602,11.755,15.06,15.629 C33.03,42.77,33,42.881,33,43v2c0,0.553,0.448,1,1,1s1-0.447,1-1v-1.241c1.323,0.709,2.693,1.371,4.124,1.973 c0.742,0.312,1.471,0.47,2.181,0.47c0.632,0,1.249-0.125,1.847-0.373c1.785-0.742,3.148-1.862,4.05-3.33 C48.223,40.839,49.032,38.671,46.213,36.613z M45.499,41.451c-0.678,1.102-1.726,1.952-3.114,2.53 c-0.767,0.317-1.579,0.29-2.484-0.094c-8.993-3.783-15.767-9.775-20.135-17.808c-0.686-1.261-1.211-2.596-1.768-4.008 c-0.188-0.478-0.376-0.955-0.57-1.428c-0.051-0.126-0.073-0.338-0.096-0.562c-0.012-0.123-0.025-0.246-0.042-0.366 c0.096-2.459,2.087-3.766,3.936-4.171c0.321-0.069,0.822-0.097,1.447,0.497c1.714,1.627,3.117,3.558,4.169,5.739 c0.231,0.479,0.265,0.906-0.327,1.441c-0.144,0.132-0.296,0.254-0.453,0.37c-2.248,1.683-2.639,3.245-1.446,5.766 c1.716,3.621,4.622,6.29,8.635,7.933c1.339,0.551,2.682,0.255,3.745-0.866c0.1-0.103,0.237-0.241,0.354-0.435 c0.438-0.727,0.947-1.155,1.512-1.273c0.858-0.181,1.815,0.331,2.465,0.791c0.774,0.548,1.535,1.112,2.295,1.678 c0.47,0.349,0.939,0.698,1.412,1.043C46.375,39.207,46.471,39.87,45.499,41.451z"/><path fill="#faefde" d="M44.271,28.495c0.056,0.01,0.111,0.014,0.165,0.014c0.48,0,0.904-0.347,0.985-0.836 c0.102-0.609,0.153-1.228,0.153-1.838c0-6.091-4.98-11.047-11.103-11.047c-0.608,0-1.229,0.051-1.843,0.151 c-0.545,0.09-0.915,0.604-0.825,1.149s0.605,0.916,1.148,0.825c0.508-0.084,1.02-0.126,1.52-0.126 c5.019,0,9.103,4.059,9.103,9.047c0,0.501-0.042,1.009-0.125,1.51C43.357,27.89,43.726,28.404,44.271,28.495z"/><path fill="#faefde" d="M32.288 20.624c0 .553.448 1 1 1 2.993 0 5.429 2.42 5.429 5.394 0 .553.448 1 1 1s1-.447 1-1c0-4.077-3.333-7.394-7.429-7.394C32.735 19.624 32.288 20.071 32.288 20.624zM50.031 28.08c.165-.717.275-1.456.33-2.194.041-.551-.373-1.03-.923-1.071-.542-.044-1.03.372-1.071.923-.047.639-.144 1.277-.285 1.897-.124.538.213 1.074.751 1.197.075.018.15.025.224.025C49.514 28.857 49.925 28.544 50.031 28.08zM32.623 12.271c.935-.211 1.901-.318 2.871-.318 6.308 0 11.793 4.669 12.757 10.86.077.493.503.846.987.846.051 0 .103-.004.155-.012.546-.085.919-.597.834-1.143-1.115-7.155-7.449-12.552-14.734-12.552-1.118 0-2.231.124-3.311.367-.539.122-.877.657-.755 1.196C31.548 12.054 32.082 12.393 32.623 12.271z"/><path fill="#8d6c9f" d="M19 42c-.552 0-1 .447-1 1v2c0 .553.448 1 1 1s1-.447 1-1v-2C20 42.447 19.552 42 19 42zM14 42c-.552 0-1 .447-1 1v2c0 .553.448 1 1 1s1-.447 1-1v-2C15 42.447 14.552 42 14 42zM29 42c-.552 0-1 .447-1 1v2c0 .553.448 1 1 1s1-.447 1-1v-2C30 42.447 29.552 42 29 42zM24 42c-.552 0-1 .447-1 1v2c0 .553.448 1 1 1s1-.447 1-1v-2C25 42.447 24.552 42 24 42zM50 42c-.552 0-1 .447-1 1v2c0 .553.448 1 1 1s1-.447 1-1v-2C51 42.447 50.552 42 50 42z"/></svg>