<?xml version="1.0" encoding="UTF-8"?>
<!DOCTYPE svg PUBLIC "-//W3C//DTD SVG 1.1//EN" "http://www.w3.org/Graphics/SVG/1.1/DTD/svg11.dtd">
<svg xmlns="http://www.w3.org/2000/svg" version="1.1" width="100px" height="100px" style="shape-rendering:geometricPrecision; text-rendering:geometricPrecision; image-rendering:optimizeQuality; fill-rule:evenodd; clip-rule:evenodd" xmlns:xlink="http://www.w3.org/1999/xlink">
<g><path style="opacity:0.785" fill="#fefffe" d="M 46.5,5.5 C 47.9778,5.23798 49.3112,5.57131 50.5,6.5C 52.7058,11.0785 55.0391,15.5785 57.5,20C 61.5,20.3333 65.5,20.6667 69.5,21C 74.9493,35.0725 81.1159,48.9058 88,62.5C 88.4935,64.1341 88.6602,65.8008 88.5,67.5C 85.8333,67.5 83.1667,67.5 80.5,67.5C 81.8178,73.1415 83.9845,78.4749 87,83.5C 87.4935,85.1341 87.6602,86.8008 87.5,88.5C 85.8561,88.7135 84.3561,88.3802 83,87.5C 81.2589,84.6907 80.0922,81.6907 79.5,78.5C 68.1997,80.3834 56.8664,82.05 45.5,83.5C 45.9728,86.6965 46.6394,89.8632 47.5,93C 46.615,95.1566 44.9484,95.9899 42.5,95.5C 41.2742,88.4784 39.9409,81.4784 38.5,74.5C 34.5471,73.9854 30.5471,73.8187 26.5,74C 25.6705,72.1839 24.8372,70.3506 24,68.5C 21.7576,75.2456 18.7576,81.5789 15,87.5C 13.6026,86.7741 12.7692,85.6075 12.5,84C 15.5,75.6667 18.5,67.3333 21.5,59C 19.2776,47.9951 17.2776,36.9951 15.5,26C 19.5884,23.0573 24.2551,21.8906 29.5,22.5C 29.2005,17.4009 28.7005,12.4009 28,7.5C 30.5497,6.02002 32.3831,6.68669 33.5,9.5C 37.8461,10.5847 42.1795,10.418 46.5,9C 45.3157,7.85453 45.3157,6.68787 46.5,5.5 Z M 44.5,14.5 C 45.8734,14.3433 47.2068,14.51 48.5,15C 49.5,16.6667 50.5,18.3333 51.5,20C 48.854,20.4974 46.1873,20.6641 43.5,20.5C 43.8333,18.5 44.1667,16.5 44.5,14.5 Z M 34.5,15.5 C 35.8333,15.5 37.1667,15.5 38.5,15.5C 36.6538,23.3747 35.3205,23.3747 34.5,15.5 Z M 67.5,35.5 C 67.5,36.5 67.5,37.5 67.5,38.5C 68.8734,38.3433 70.2068,38.51 71.5,39C 70.1837,40.9776 70.6837,42.4776 73,43.5C 76.1064,49.3791 78.9397,55.3791 81.5,61.5C 79.9775,63.2825 77.9775,63.9492 75.5,63.5C 75.5,62.5 75.5,61.5 75.5,60.5C 73.3618,60.703 71.6951,61.703 70.5,63.5C 69.6143,62.675 69.281,61.675 69.5,60.5C 67.0268,60.736 65.3601,62.0693 64.5,64.5C 63.6143,63.675 63.281,62.675 63.5,61.5C 61.1331,62.1637 59.1331,63.497 57.5,65.5C 56.6143,64.675 56.281,63.675 56.5,62.5C 54.0268,62.736 52.3601,64.0693 51.5,66.5C 50.8333,65.1667 50.1667,63.8333 49.5,62.5C 48.16,63.8665 46.8267,65.1999 45.5,66.5C 43.5809,63.9165 41.9142,64.2498 40.5,67.5C 39.6143,66.675 39.281,65.675 39.5,64.5C 37.063,66.8384 34.063,68.5051 30.5,69.5C 28.2169,64.3699 26.5502,59.0366 25.5,53.5C 29.4075,51.4351 29.0742,49.9351 24.5,49C 25.7932,48.51 27.1266,48.3433 28.5,48.5C 28.5,47.5 28.5,46.5 28.5,45.5C 25.756,45.7997 24.0894,44.633 23.5,42C 22.3915,37.5285 21.8915,33.0285 22,28.5C 28.5459,26.1567 35.0459,26.1567 41.5,28.5C 41.281,27.325 41.6143,26.325 42.5,25.5C 43.6951,27.297 45.3618,28.297 47.5,28.5C 47.3505,27.448 47.5172,26.448 48,25.5C 48.7387,26.5742 49.7387,27.2409 51,27.5C 56.0115,25.3344 61.1782,25.001 66.5,26.5C 66.9312,27.2935 67.2645,28.1268 67.5,29C 65.7991,30.8603 64.7991,33.027 64.5,35.5C 65.5,35.5 66.5,35.5 67.5,35.5 Z M 32.5,34.5 C 34.256,35.5521 34.9227,37.2188 34.5,39.5C 33.5,39.5 32.5,39.5 31.5,39.5C 31.366,37.7085 31.6993,36.0418 32.5,34.5 Z M 57.5,37.5 C 62.178,42.9979 66.5114,48.8312 70.5,55C 63.7666,55.8231 57.0999,56.4898 50.5,57C 52.9766,50.5477 55.31,44.0477 57.5,37.5 Z M 42.5,46.5 C 45.2446,47.7372 47.5779,49.5705 49.5,52C 48.8801,54.2123 47.7134,56.0456 46,57.5C 43.2734,58.0629 40.6067,58.7295 38,59.5C 39.3698,55.2276 40.8698,50.8942 42.5,46.5 Z M 70.5,68.5 C 73.7454,68.2934 75.7454,69.7934 76.5,73C 65.9792,75.2244 55.4792,77.3911 45,79.5C 44.6892,77.444 44.1892,75.444 43.5,73.5C 44,73.1667 44.5,72.8333 45,72.5C 53.6527,71.2768 62.1527,69.9435 70.5,68.5 Z"/></g>
<g><path style="opacity:0.766" fill="#fefffe" d="M 60.5,28.5 C 62.337,28.6395 62.6704,29.3061 61.5,30.5C 60.7025,30.0431 60.3691,29.3764 60.5,28.5 Z"/></g>
<g><path style="opacity:0.649" fill="#fefffe" d="M 32.5,30.5 C 37.9409,32.9911 39.2743,36.8244 36.5,42C 29.4949,43.3236 26.9949,40.4902 29,33.5C 30.1451,32.3636 31.3117,31.3636 32.5,30.5 Z M 32.5,34.5 C 31.6993,36.0418 31.366,37.7085 31.5,39.5C 32.5,39.5 33.5,39.5 34.5,39.5C 34.9227,37.2188 34.256,35.5521 32.5,34.5 Z"/></g>
<g><path style="opacity:0.766" fill="#fefffe" d="M 42.5,32.5 C 44.337,32.6395 44.6704,33.3061 43.5,34.5C 42.7025,34.0431 42.3691,33.3764 42.5,32.5 Z"/></g>
<g><path style="opacity:0.647" fill="#fefffe" d="M 55.5,32.5 C 56.9778,32.238 58.3112,32.5713 59.5,33.5C 64,39.8333 68.5,46.1667 73,52.5C 74.1871,54.0444 74.5205,55.7111 74,57.5C 60.5173,58.9801 47.0173,60.6467 33.5,62.5C 35.4334,55.7 37.7668,49.0333 40.5,42.5C 43.967,42.4457 46.6337,43.9457 48.5,47C 49.1667,47.6667 49.8333,47.6667 50.5,47C 52.8634,42.41 54.53,37.5767 55.5,32.5 Z M 57.5,37.5 C 55.31,44.0477 52.9766,50.5477 50.5,57C 57.0999,56.4898 63.7666,55.8231 70.5,55C 66.5114,48.8312 62.178,42.9979 57.5,37.5 Z M 42.5,46.5 C 40.8698,50.8942 39.3698,55.2276 38,59.5C 40.6067,58.7295 43.2734,58.0629 46,57.5C 47.7134,56.0456 48.8801,54.2123 49.5,52C 47.5779,49.5705 45.2446,47.7372 42.5,46.5 Z"/></g>
<g><path style="opacity:0.766" fill="#fefffe" d="M 47.5,40.5 C 49.337,40.6395 49.6704,41.3061 48.5,42.5C 47.7025,42.0431 47.3691,41.3764 47.5,40.5 Z"/></g>
</svg>
