<?xml version="1.0" encoding="UTF-8"?>
<!DOCTYPE svg PUBLIC "-//W3C//DTD SVG 1.1//EN" "http://www.w3.org/Graphics/SVG/1.1/DTD/svg11.dtd">
<svg xmlns="http://www.w3.org/2000/svg" version="1.1" width="100px" height="100px" style="shape-rendering:geometricPrecision; text-rendering:geometricPrecision; image-rendering:optimizeQuality; fill-rule:evenodd; clip-rule:evenodd" xmlns:xlink="http://www.w3.org/1999/xlink">
<g><path style="opacity:0.761" fill="#fefffe" d="M 47.5,0.5 C 53.5382,0.185743 58.2049,2.51908 61.5,7.5C 63.8507,8.01184 65.8507,9.01184 67.5,10.5C 65.9793,10.8797 64.3126,11.0464 62.5,11C 63.5914,13.0639 63.7581,15.2305 63,17.5C 61.1761,22.4778 58.3428,26.8112 54.5,30.5C 54.7093,31.086 55.0426,31.586 55.5,32C 63.7042,30.924 68.3709,34.424 69.5,42.5C 69.6655,50.8532 69.1655,59.1866 68,67.5C 66.2111,69.229 64.0444,69.8957 61.5,69.5C 60.8646,76.0911 59.8646,82.5911 58.5,89C 59.1667,89.6667 59.8333,90.3333 60.5,91C 60.3744,92.9743 60.2078,95.141 60,97.5C 53,98.8333 46,98.8333 39,97.5C 38.3399,94.4665 38.8399,91.6331 40.5,89C 39.1354,82.5911 38.1354,76.0911 37.5,69.5C 34.9556,69.8957 32.7889,69.229 31,67.5C 29.8345,59.1866 29.3345,50.8532 29.5,42.5C 30.6291,34.424 35.2958,30.924 43.5,32C 43.9574,31.586 44.2907,31.086 44.5,30.5C 40.6572,26.8112 37.8239,22.4778 36,17.5C 35.2419,15.2305 35.4086,13.0639 36.5,11C 34.6874,11.0464 33.0207,10.8797 31.5,10.5C 33.1493,9.01184 35.1493,8.01184 37.5,7.5C 39.8958,3.65034 43.2292,1.317 47.5,0.5 Z M 58.5,13.5 C 56.8523,12.1902 55.1856,10.8569 53.5,9.5C 49.7499,14.0543 45.0832,15.7209 39.5,14.5C 42.0455,5.72453 47.3788,3.22453 55.5,7C 57.4506,8.73423 58.4506,10.9009 58.5,13.5 Z M 52.5,15.5 C 56.7022,16.9518 57.5355,19.6185 55,23.5C 49.7634,27.4836 45.5967,26.4836 42.5,20.5C 46.3183,19.5755 49.6516,17.9088 52.5,15.5 Z M 48.5,30.5 C 50.7409,31.2998 51.7409,32.9664 51.5,35.5C 50.1667,35.5 48.8333,35.5 47.5,35.5C 47.6287,33.7839 47.962,32.1172 48.5,30.5 Z M 36.5,36.5 C 40.938,36.9163 45.2714,37.9163 49.5,39.5C 52.1104,39.3528 54.4437,38.5194 56.5,37C 59.3471,36.0561 61.8471,36.5561 64,38.5C 64.8309,45.1915 64.6642,51.8582 63.5,58.5C 62.6725,54.2044 62.1725,49.8711 62,45.5C 61,44.1667 60,44.1667 59,45.5C 58.501,49.8206 58.3343,54.1539 58.5,58.5C 52.5,58.5 46.5,58.5 40.5,58.5C 40.6657,54.1539 40.499,49.8206 40,45.5C 39,44.1667 38,44.1667 37,45.5C 36.8275,49.8711 36.3275,54.2044 35.5,58.5C 34.3358,51.8582 34.1691,45.1915 35,38.5C 35.7172,37.9558 36.2172,37.2891 36.5,36.5 Z M 34.5,62.5 C 36.337,62.6395 36.6704,63.3061 35.5,64.5C 34.7025,64.0431 34.3691,63.3764 34.5,62.5 Z M 40.5,63.5 C 46.3188,62.3475 52.3188,62.1808 58.5,63C 56.9698,70.733 55.8031,78.5664 55,86.5C 53.9887,87.3366 52.8221,87.67 51.5,87.5C 51.5,81.1667 51.5,74.8333 51.5,68.5C 50.1667,68.5 48.8333,68.5 47.5,68.5C 47.5,74.8333 47.5,81.1667 47.5,87.5C 46.1779,87.67 45.0113,87.3366 44,86.5C 43.2285,78.6307 42.0618,70.964 40.5,63.5 Z M 62.5,62.5 C 64.337,62.6395 64.6704,63.3061 63.5,64.5C 62.7025,64.0431 62.3691,63.3764 62.5,62.5 Z M 43.5,91.5 C 44.9778,91.238 46.3112,91.5713 47.5,92.5C 46.8333,92.8333 46.1667,93.1667 45.5,93.5C 44.2867,93.2528 43.62,92.5862 43.5,91.5 Z M 51.5,91.5 C 52.9778,91.238 54.3112,91.5713 55.5,92.5C 54.8333,92.8333 54.1667,93.1667 53.5,93.5C 52.2867,93.2528 51.62,92.5862 51.5,91.5 Z"/></g>
<g><path style="opacity:0.36" fill="#fefffe" d="M 26.5,11.5 C 27.675,11.281 28.675,11.6143 29.5,12.5C 28.2151,14.6589 26.5485,15.3255 24.5,14.5C 25.1925,13.4822 25.8592,12.4822 26.5,11.5 Z"/></g>
<g><path style="opacity:0.36" fill="#fefffe" d="M 69.5,11.5 C 72.7673,11.4239 74.1007,12.7573 73.5,15.5C 71.1917,15.0345 69.8584,13.7012 69.5,11.5 Z"/></g>
<g><path style="opacity:0.391" fill="#fefffe" d="M 21.5,15.5 C 22.8699,17.7073 22.2032,19.374 19.5,20.5C 19.1667,20 18.8333,19.5 18.5,19C 19.5442,17.8261 20.5442,16.6594 21.5,15.5 Z"/></g>
<g><path style="opacity:0.397" fill="#fefffe" d="M 76.5,15.5 C 78.0217,16.4312 79.3551,17.5979 80.5,19C 79.3521,20.726 78.1855,20.5593 77,18.5C 76.5172,17.552 76.3505,16.552 76.5,15.5 Z"/></g>
<g><path style="opacity:0.36" fill="#fefffe" d="M 15.5,21.5 C 16.3764,21.3691 17.0431,21.7025 17.5,22.5C 16.9744,24.2303 15.9744,25.5637 14.5,26.5C 13.3482,24.6029 13.6815,22.9362 15.5,21.5 Z"/></g>
<g><path style="opacity:0.359" fill="#fefffe" d="M 81.5,21.5 C 84.7195,22.0211 85.7195,23.6878 84.5,26.5C 82.7377,25.3115 81.7377,23.6449 81.5,21.5 Z"/></g>
<g><path style="opacity:0.335" fill="#fefffe" d="M 10.5,28.5 C 11.675,28.281 12.675,28.6143 13.5,29.5C 10.389,34.9906 9.38899,34.6572 10.5,28.5 Z"/></g>
<g><path style="opacity:0.336" fill="#fefffe" d="M 85.5,28.5 C 88.8384,28.8493 89.8384,30.516 88.5,33.5C 86.7377,32.3115 85.7377,30.6449 85.5,28.5 Z"/></g>
<g><path style="opacity:0.426" fill="#fefffe" d="M 8.5,35.5 C 9.37644,35.3691 10.0431,35.7025 10.5,36.5C 8.17235,41.5571 7.50569,41.2238 8.5,35.5 Z"/></g>
<g><path style="opacity:0.423" fill="#fefffe" d="M 88.5,35.5 C 91.423,36.1634 92.0897,37.8301 90.5,40.5C 89.438,38.9783 88.7713,37.3117 88.5,35.5 Z"/></g>
<g><path style="opacity:0.448" fill="#fefffe" d="M 21.5,41.5 C 23.288,41.2148 24.9547,41.5481 26.5,42.5C 25.6667,42.8333 24.8333,43.1667 24,43.5C 22.6244,43.3158 21.7911,42.6491 21.5,41.5 Z"/></g>
<g><path style="opacity:0.45" fill="#fefffe" d="M 72.5,41.5 C 74.288,41.2148 75.9547,41.5481 77.5,42.5C 76.6667,42.8333 75.8333,43.1667 75,43.5C 73.6244,43.3158 72.7911,42.6491 72.5,41.5 Z"/></g>
<g><path style="opacity:0.448" fill="#fefffe" d="M 14.5,42.5 C 16.288,42.2148 17.9547,42.5481 19.5,43.5C 18.6667,43.8333 17.8333,44.1667 17,44.5C 15.6244,44.3158 14.7911,43.6491 14.5,42.5 Z"/></g>
<g><path style="opacity:0.448" fill="#fefffe" d="M 79.5,42.5 C 81.288,42.2148 82.9547,42.5481 84.5,43.5C 83.6667,43.8333 82.8333,44.1667 82,44.5C 80.6244,44.3158 79.7911,43.6491 79.5,42.5 Z"/></g>
<g><path style="opacity:0.437" fill="#fefffe" d="M 6.5,43.5 C 14.297,44.051 14.297,45.051 6.5,46.5C 6.5,45.5 6.5,44.5 6.5,43.5 Z"/></g>
<g><path style="opacity:0.444" fill="#fefffe" d="M 86.5,43.5 C 88.5,43.5 90.5,43.5 92.5,43.5C 92.5,44.5 92.5,45.5 92.5,46.5C 89.6067,46.9689 87.6067,45.9689 86.5,43.5 Z"/></g>
<g><path style="opacity:0.365" fill="#fefffe" d="M 2.5,46.5 C 3.5,46.5 4.5,46.5 5.5,46.5C 5.5,47.8333 5.5,49.1667 5.5,50.5C 4.5,50.5 3.5,50.5 2.5,50.5C 2.5,49.1667 2.5,47.8333 2.5,46.5 Z"/></g>
<g><path style="opacity:0.361" fill="#fefffe" d="M 93.5,46.5 C 94.5,46.5 95.5,46.5 96.5,46.5C 96.5,47.8333 96.5,49.1667 96.5,50.5C 95.5,50.5 94.5,50.5 93.5,50.5C 93.5,49.1667 93.5,47.8333 93.5,46.5 Z"/></g>
<g><path style="opacity:0.419" fill="#fefffe" d="M 6.5,50.5 C 8.82733,50.2471 10.8273,50.9137 12.5,52.5C 11.3493,53.731 10.1827,53.731 9,52.5C 8.69238,53.3081 8.19238,53.9747 7.5,54.5C 6.57131,53.3112 6.23798,51.9778 6.5,50.5 Z"/></g>
<g><path style="opacity:0.464" fill="#fefffe" d="M 88.5,50.5 C 89.8333,50.5 91.1667,50.5 92.5,50.5C 92.762,51.9778 92.4287,53.3112 91.5,54.5C 90.8076,53.9747 90.3076,53.3081 90,52.5C 87.5728,53.567 87.0728,52.9003 88.5,50.5 Z"/></g>
<g><path style="opacity:0.449" fill="#fefffe" d="M 14.5,52.5 C 16.288,52.2148 17.9547,52.5481 19.5,53.5C 18.6667,53.8333 17.8333,54.1667 17,54.5C 15.6244,54.3158 14.7911,53.6491 14.5,52.5 Z"/></g>
<g><path style="opacity:0.446" fill="#fefffe" d="M 79.5,52.5 C 81.288,52.2148 82.9547,52.5481 84.5,53.5C 83.6667,53.8333 82.8333,54.1667 82,54.5C 80.6244,54.3158 79.7911,53.6491 79.5,52.5 Z"/></g>
<g><path style="opacity:0.448" fill="#fefffe" d="M 21.5,53.5 C 23.288,53.2148 24.9547,53.5481 26.5,54.5C 25.6667,54.8333 24.8333,55.1667 24,55.5C 22.6244,55.3158 21.7911,54.6491 21.5,53.5 Z"/></g>
<g><path style="opacity:0.447" fill="#fefffe" d="M 72.5,53.5 C 74.288,53.2148 75.9547,53.5481 77.5,54.5C 76.6667,54.8333 75.8333,55.1667 75,55.5C 73.6244,55.3158 72.7911,54.6491 72.5,53.5 Z"/></g>
<g><path style="opacity:0.395" fill="#fefffe" d="M 7.5,56.5 C 9.08527,57.4737 10.0853,58.9737 10.5,61C 10,61.5 9.5,62 9,62.5C 7.68136,60.7505 7.18136,58.7505 7.5,56.5 Z"/></g>
<g><path style="opacity:0.472" fill="#fefffe" d="M 89.5,56.5 C 90.6491,56.7911 91.3158,57.6244 91.5,59C 91.1667,59.8333 90.8333,60.6667 90.5,61.5C 89.5481,59.9547 89.2148,58.288 89.5,56.5 Z"/></g>
<g><path style="opacity:0.393" fill="#fefffe" d="M 9.5,64.5 C 12.423,65.1634 13.0897,66.8301 11.5,69.5C 10.0499,68.1502 9.38321,66.4835 9.5,64.5 Z"/></g>
<g><path style="opacity:0.394" fill="#fefffe" d="M 87.5,64.5 C 89.8963,65.8275 89.8963,67.4942 87.5,69.5C 86.3336,67.8327 86.3336,66.166 87.5,64.5 Z"/></g>
<g><path style="opacity:0.336" fill="#fefffe" d="M 13.5,71.5 C 16.7195,72.0211 17.7195,73.6878 16.5,76.5C 14.244,75.5791 13.244,73.9124 13.5,71.5 Z"/></g>
<g><path style="opacity:0.364" fill="#fefffe" d="M 83.5,71.5 C 85.9843,73.0277 85.8177,74.6944 83,76.5C 81.198,74.7271 81.3647,73.0605 83.5,71.5 Z"/></g>
<g><path style="opacity:0.47" fill="#fefffe" d="M 18.5,77.5 C 20.3841,77.7118 21.7174,78.7118 22.5,80.5C 20.2192,81.2617 18.8859,80.2617 18.5,77.5 Z"/></g>
<g><path style="opacity:0.473" fill="#fefffe" d="M 78.5,77.5 C 80.8852,78.8673 80.5518,80.2007 77.5,81.5C 77.1667,81.1667 76.8333,80.8333 76.5,80.5C 77.1925,79.4822 77.8592,78.4822 78.5,77.5 Z"/></g>
<g><path style="opacity:0.367" fill="#fefffe" d="M 24.5,82.5 C 26.6449,82.7377 28.3115,83.7377 29.5,85.5C 26.6878,86.7195 25.0211,85.7195 24.5,82.5 Z"/></g>
<g><path style="opacity:0.365" fill="#fefffe" d="M 72.5,82.5 C 73.3764,82.3691 74.0431,82.7025 74.5,83.5C 73.485,86.1677 71.8183,86.8344 69.5,85.5C 70.3398,84.265 71.3398,83.265 72.5,82.5 Z"/></g>
<g><path style="opacity:0.397" fill="#fefffe" d="M 31.5,86.5 C 33.4835,86.3832 35.1502,87.0499 36.5,88.5C 33.8301,90.0897 32.1634,89.423 31.5,86.5 Z"/></g>
<g><path style="opacity:0.392" fill="#fefffe" d="M 64.5,86.5 C 66.3547,86.272 67.1881,86.9387 67,88.5C 65.5064,89.7472 64.0064,89.7472 62.5,88.5C 63.2427,87.8182 63.9094,87.1515 64.5,86.5 Z"/></g>
</svg>
