<?xml version="1.0" encoding="UTF-8"?>
<!DOCTYPE svg PUBLIC "-//W3C//DTD SVG 1.1//EN" "http://www.w3.org/Graphics/SVG/1.1/DTD/svg11.dtd">
<svg xmlns="http://www.w3.org/2000/svg" version="1.1" width="100px" height="100px" style="shape-rendering:geometricPrecision; text-rendering:geometricPrecision; image-rendering:optimizeQuality; fill-rule:evenodd; clip-rule:evenodd" xmlns:xlink="http://www.w3.org/1999/xlink">
<g><path style="opacity:0.788" fill="#fefffe" d="M 33.5,5.5 C 39.4949,6.30761 43.6616,9.64095 46,15.5C 50.8125,7.27761 57.9792,3.94427 67.5,5.5C 67.8373,10.3147 66.8373,14.8147 64.5,19C 75.1446,20.9794 81.9779,27.146 85,37.5C 85.8859,45.6074 85.3859,53.6074 83.5,61.5C 81.4727,61.6621 79.4727,61.4955 77.5,61C 80.3175,53.7696 81.1508,46.2696 80,38.5C 75.4685,26.8145 66.9685,22.3145 54.5,25C 51.1845,25.991 48.1845,27.491 45.5,29.5C 38.9154,24.8409 31.5821,23.3409 23.5,25C 16.9028,27.2634 12.7361,31.7634 11,38.5C 8.85145,55.3923 14.1848,69.3923 27,80.5C 27.8077,82.5787 27.641,84.5787 26.5,86.5C 7.07651,71.7265 1.24318,52.7265 9,29.5C 17.8967,19.3709 28.7301,16.7043 41.5,21.5C 41.8333,21.1667 42.1667,20.8333 42.5,20.5C 40.6114,16.0327 37.778,12.3661 34,9.5C 33.51,8.20677 33.3433,6.87344 33.5,5.5 Z M 58.5,10.5 C 59.8734,10.3433 61.2068,10.51 62.5,11C 61.5633,13.7065 60.2299,16.2065 58.5,18.5C 55.5815,19.3144 52.7481,20.3144 50,21.5C 49.4795,19.7111 49.8129,18.0444 51,16.5C 53.1141,13.8792 55.6141,11.8792 58.5,10.5 Z"/></g>
<g><path style="opacity:0.943" fill="#fefffe" d="M 89.5,45.5 C 91.1733,46.343 92.34,47.6763 93,49.5C 93.6667,61.1667 93.6667,72.8333 93,84.5C 91.9686,87.5395 90.1353,90.0395 87.5,92C 68.9266,93.4741 50.2599,93.9741 31.5,93.5C 31.5,84.1667 31.5,74.8333 31.5,65.5C 48.8894,65.9435 66.2228,65.4435 83.5,64C 85.3333,62.8333 86.8333,61.3333 88,59.5C 89.2252,54.9147 89.7252,50.248 89.5,45.5 Z M 88.5,66.5 C 89.8106,72.0566 89.644,77.7233 88,83.5C 86.8333,85.3333 85.3333,86.8333 83.5,88C 67.5573,89.4383 51.5573,89.9383 35.5,89.5C 35.5,82.8333 35.5,76.1667 35.5,69.5C 38.1667,69.5 40.8333,69.5 43.5,69.5C 43.5,72.8333 43.5,76.1667 43.5,79.5C 44.8333,79.5 46.1667,79.5 47.5,79.5C 47.5,76.1667 47.5,72.8333 47.5,69.5C 50.1667,69.5 52.8333,69.5 55.5,69.5C 55.5,74.1667 55.5,78.8333 55.5,83.5C 56.8333,83.5 58.1667,83.5 59.5,83.5C 59.5,78.8333 59.5,74.1667 59.5,69.5C 62.1667,69.5 64.8333,69.5 67.5,69.5C 67.5,73.5 67.5,77.5 67.5,81.5C 68.8333,81.5 70.1667,81.5 71.5,81.5C 71.5,77.5 71.5,73.5 71.5,69.5C 74.1667,69.5 76.8333,69.5 79.5,69.5C 79.5,74.1667 79.5,78.8333 79.5,83.5C 80.8333,83.5 82.1667,83.5 83.5,83.5C 83.3342,78.8215 83.5008,74.1548 84,69.5C 85.8778,68.9473 87.3778,67.9473 88.5,66.5 Z"/></g>
</svg>
