<?xml version="1.0" encoding="UTF-8"?>
<!DOCTYPE svg PUBLIC "-//W3C//DTD SVG 1.1//EN" "http://www.w3.org/Graphics/SVG/1.1/DTD/svg11.dtd">
<svg xmlns="http://www.w3.org/2000/svg" version="1.1" width="100px" height="100px" style="shape-rendering:geometricPrecision; text-rendering:geometricPrecision; image-rendering:optimizeQuality; fill-rule:evenodd; clip-rule:evenodd" xmlns:xlink="http://www.w3.org/1999/xlink">
<g><path style="opacity:0.7" fill="#fefffe" d="M 53.5,17.5 C 54.8734,17.3433 56.2068,17.51 57.5,18C 62.3333,21.5 67.1667,25 72,28.5C 71.6011,25.5488 71.1011,22.5488 70.5,19.5C 74.5,19.5 78.5,19.5 82.5,19.5C 81.7801,22.9581 81.1134,26.4581 80.5,30C 80.6667,31.8333 80.8333,33.6667 81,35.5C 86.8096,39.0936 88.9763,44.4269 87.5,51.5C 86.1779,51.67 85.0113,51.3366 84,50.5C 83.3333,57.1667 83.3333,63.8333 84,70.5C 87.0887,73.5259 87.2554,76.6926 84.5,80C 63.1693,80.5 41.8359,80.6666 20.5,80.5C 21.0488,78.0987 21.8822,75.7654 23,73.5C 25.2573,65.1 22.0906,60.6 13.5,60C 12.0729,57.2871 10.9062,54.4538 10,51.5C 9.33333,48.8333 9.33333,46.1667 10,43.5C 11.0731,39.5718 12.0731,35.5718 13,31.5C 14.1545,30.2567 15.4878,29.2567 17,28.5C 17.0929,25.9925 17.9262,23.8259 19.5,22C 24.3979,20.3753 29.3979,19.7086 34.5,20C 37.3785,21.7183 40.2119,23.5516 43,25.5C 46.9693,23.3532 50.4693,20.6866 53.5,17.5 Z M 54.5,20.5 C 62.4109,25.0812 69.4109,30.7479 75.5,37.5C 75.8333,37.1667 76.1667,36.8333 76.5,36.5C 75.0559,31.2404 73.7226,25.907 72.5,20.5C 75.1667,20.5 77.8333,20.5 80.5,20.5C 79.0388,26.3892 78.0388,32.3892 77.5,38.5C 80.3602,39.1798 82.8602,40.5131 85,42.5C 85.6667,44.1667 85.6667,45.8333 85,47.5C 75.5664,39.8731 65.7331,32.8731 55.5,26.5C 45.2669,32.8731 35.4336,39.8731 26,47.5C 25.1041,44.975 25.6041,42.8083 27.5,41C 36.9685,34.687 45.9685,27.8537 54.5,20.5 Z M 28.5,22.5 C 32.5326,23.6731 36.5326,25.1731 40.5,27C 34.3503,31.486 28.5169,36.3193 23,41.5C 22.3333,44.5 22.3333,47.5 23,50.5C 24.3333,51.8333 25.6667,51.8333 27,50.5C 27.8265,54.5411 27.6599,58.5411 26.5,62.5C 24.6841,61.1851 23.0175,59.6851 21.5,58C 19.236,57.7638 17.0693,57.2638 15,56.5C 13.2018,52.696 12.5351,48.696 13,44.5C 14.6095,43.8534 16.1095,43.02 17.5,42C 16.552,41.5172 15.552,41.3505 14.5,41.5C 13.0632,35.8811 15.0632,32.5477 20.5,31.5C 19.3951,24.5862 21.7284,22.9195 27.5,26.5C 27.7876,25.1395 28.121,23.8062 28.5,22.5 Z M 54.5,29.5 C 63.5392,35.4465 72.3725,41.7798 81,48.5C 81.3664,54.1747 81.1997,59.8414 80.5,65.5C 75.4636,65.5878 70.4636,66.0878 65.5,67C 64.9582,69.2548 63.7915,71.0881 62,72.5C 61.5045,74.4727 61.3379,76.4727 61.5,78.5C 58.8333,78.5 56.1667,78.5 53.5,78.5C 53.5,70.8333 53.5,63.1667 53.5,55.5C 48.1667,55.5 42.8333,55.5 37.5,55.5C 37.5,63.1667 37.5,70.8333 37.5,78.5C 34.8333,78.5 32.1667,78.5 29.5,78.5C 29.3335,68.4944 29.5002,58.4944 30,48.5C 38.3524,42.303 46.5191,35.9697 54.5,29.5 Z M 60.5,47.5 C 62.1667,47.5 63.8333,47.5 65.5,47.5C 65.5,51.1667 65.5,54.8333 65.5,58.5C 63.8333,58.5 62.1667,58.5 60.5,58.5C 60.5,54.8333 60.5,51.1667 60.5,47.5 Z M 38.5,56.5 C 43.1667,56.5 47.8333,56.5 52.5,56.5C 52.5,63.8333 52.5,71.1667 52.5,78.5C 47.8333,78.5 43.1667,78.5 38.5,78.5C 38.5,71.1667 38.5,63.8333 38.5,56.5 Z M 24.5,65.5 C 25.5,65.5 26.5,65.5 27.5,65.5C 27.5,70.1667 27.5,74.8333 27.5,79.5C 25.8008,79.6602 24.1341,79.4935 22.5,79C 23,78.5 23.5,78 24,77.5C 24.4988,73.5138 24.6655,69.5138 24.5,65.5 Z M 73.5,67.5 C 75.7925,67.2436 77.9592,67.5769 80,68.5C 80.6395,71.1123 81.8062,73.4457 83.5,75.5C 83.1822,76.6473 82.5156,77.4806 81.5,78C 75.7805,78.7876 70.1138,78.6209 64.5,77.5C 63.2229,75.3703 63.7229,73.7036 66,72.5C 66.49,71.2068 66.6567,69.8734 66.5,68.5C 68.2624,68.3573 69.9291,68.6906 71.5,69.5C 72.5223,69.1445 73.189,68.4778 73.5,67.5 Z"/></g>
<g><path style="opacity:0.479" fill="#fefffe" d="M 24.5,29.5 C 26.288,29.2148 27.9547,29.5481 29.5,30.5C 28.6667,30.8333 27.8333,31.1667 27,31.5C 25.6244,31.3158 24.7911,30.6491 24.5,29.5 Z"/></g>
<g><path style="opacity:0.326" fill="#fefffe" d="M 22.5,30.5 C 23.7759,31.3864 23.7759,32.3864 22.5,33.5C 21.4376,32.5754 21.4376,31.5754 22.5,30.5 Z"/></g>
<g><path style="opacity:0.99" fill="#fefffe" d="M 59.5,46.5 C 63.1817,46.3347 66.8484,46.5014 70.5,47C 69.2068,47.49 67.8734,47.6567 66.5,47.5C 66.5,51.1667 66.5,54.8333 66.5,58.5C 68.1667,58.5 69.8333,58.5 71.5,58.5C 71.3354,55.4816 71.502,52.4816 72,49.5C 72.4983,52.8168 72.665,56.1501 72.5,59.5C 68.1667,59.5 63.8333,59.5 59.5,59.5C 59.5,55.1667 59.5,50.8333 59.5,46.5 Z M 60.5,47.5 C 60.5,51.1667 60.5,54.8333 60.5,58.5C 62.1667,58.5 63.8333,58.5 65.5,58.5C 65.5,54.8333 65.5,51.1667 65.5,47.5C 63.8333,47.5 62.1667,47.5 60.5,47.5 Z"/></g>
<g><path style="opacity:0.493" fill="#fefffe" d="M 17.5,49.5 C 19.0783,50.0656 20.4116,51.0656 21.5,52.5C 18.5812,53.9318 17.2479,52.9318 17.5,49.5 Z"/></g>
<g><path style="opacity:0.766" fill="#fefffe" d="M 48.5,67.5 C 50.337,67.6395 50.6704,68.3061 49.5,69.5C 48.7025,69.0431 48.3691,68.3764 48.5,67.5 Z"/></g>
</svg>
