<?xml version="1.0" encoding="UTF-8"?>
<!DOCTYPE svg PUBLIC "-//W3C//DTD SVG 1.1//EN" "http://www.w3.org/Graphics/SVG/1.1/DTD/svg11.dtd">
<svg xmlns="http://www.w3.org/2000/svg" version="1.1" width="100px" height="100px" style="shape-rendering:geometricPrecision; text-rendering:geometricPrecision; image-rendering:optimizeQuality; fill-rule:evenodd; clip-rule:evenodd" xmlns:xlink="http://www.w3.org/1999/xlink">
<g><path style="opacity:0.642" fill="#fefffe" d="M 77.5,-0.5 C 84.8333,-0.5 92.1667,-0.5 99.5,-0.5C 99.5,7.16667 99.5,14.8333 99.5,22.5C 98.5128,27.3054 98.1795,32.3054 98.5,37.5C 92.223,39.3699 85.8897,41.0366 79.5,42.5C 77.082,51.2446 73.582,59.5779 69,67.5C 62.3953,78.5936 55.2286,89.2602 47.5,99.5C 46.8333,99.5 46.1667,99.5 45.5,99.5C 44.4991,98.2113 44.6658,96.8779 46,95.5C 58.1285,80.2514 67.9619,63.5847 75.5,45.5C 75.1667,45.1667 74.8333,44.8333 74.5,44.5C 67.5358,46.7657 60.5358,48.9324 53.5,51C 54.8905,52.02 56.3905,52.8534 58,53.5C 58.6667,54.5 58.6667,55.5 58,56.5C 55.7928,59.564 52.9594,61.564 49.5,62.5C 49.313,60.4357 48.813,58.4357 48,56.5C 46.802,59.7256 44.9686,62.5589 42.5,65C 45,65.8854 47.3333,67.0521 49.5,68.5C 46.9868,72.3626 43.6535,75.0292 39.5,76.5C 38.8333,73.5 38.1667,70.5 37.5,67.5C 32.4301,67.9253 27.4301,68.7587 22.5,70C 25.4081,70.6888 28.0748,71.8555 30.5,73.5C 27.9868,77.3626 24.6535,80.0292 20.5,81.5C 20.233,79.0347 19.5664,76.7014 18.5,74.5C 16.6511,78.8478 14.9844,83.3478 13.5,88C 16.022,89.3409 18.6887,90.1743 21.5,90.5C 21.6495,91.552 21.4828,92.552 21,93.5C 18.9604,95.3702 17.1271,97.3702 15.5,99.5C 14.5,99.5 13.5,99.5 12.5,99.5C 11.1009,96.3012 10.1009,92.9679 9.5,89.5C 6.03209,88.8991 2.69875,87.8991 -0.5,86.5C -0.5,85.5 -0.5,84.5 -0.5,83.5C 1.62976,81.8729 3.62976,80.0396 5.5,78C 6.44802,77.5172 7.44802,77.3505 8.5,77.5C 9.0218,80.5682 9.85513,83.5682 11,86.5C 12.6918,81.2001 14.1918,75.8668 15.5,70.5C 12.3136,70.3871 9.64693,69.2205 7.5,67C 9.60535,62.7118 12.9387,60.2118 17.5,59.5C 17.7134,62.475 18.7134,65.1416 20.5,67.5C 24.0192,66.0678 27.6858,65.2345 31.5,65C 29.5789,64.6397 27.9122,63.8064 26.5,62.5C 29.0132,58.6374 32.3465,55.9708 36.5,54.5C 37.0218,57.5682 37.8551,60.5682 39,63.5C 43.5236,60.7526 45.6903,56.7526 45.5,51.5C 42.5,50.8333 39.5,50.1667 36.5,49.5C 37.436,46.0406 39.436,43.2072 42.5,41C 43.5,40.3333 44.5,40.3333 45.5,41C 46.1466,42.6095 46.98,44.1095 48,45.5C 50.6667,36.8333 53.3333,28.1667 56,19.5C 56.7096,18.0267 57.8762,17.3601 59.5,17.5C 57.0703,26.6086 54.5703,35.6086 52,44.5C 61.5,35 71,25.5 80.5,16C 75.696,11.4312 70.3627,7.5979 64.5,4.5C 63.1985,8.10783 61.5318,11.4412 59.5,14.5C 59.1667,13.6667 58.8333,12.8333 58.5,12C 59.6082,8.17881 60.6082,4.34548 61.5,0.5C 67.0262,0.821411 72.3595,0.488077 77.5,-0.5 Z M 76.5,2.5 C 82.1764,2.33391 87.8431,2.50058 93.5,3C 90,6.5 86.5,10 83,13.5C 79.0541,9.55539 74.5541,6.38873 69.5,4C 72.0356,3.81382 74.369,3.31382 76.5,2.5 Z M 95.5,5.5 C 96.7396,13.3666 96.5729,21.3666 95,29.5C 92.6113,24.4459 89.4446,19.9459 85.5,16C 89.0374,12.6309 92.3707,9.13087 95.5,5.5 Z M 80.5,20.5 C 80.9466,26.8343 79.9466,33.1677 77.5,39.5C 70.0308,42.7801 62.3642,45.2801 54.5,47C 63.369,38.2983 72.0356,29.465 80.5,20.5 Z M 84.5,20.5 C 88.3023,24.7474 91.6356,29.4141 94.5,34.5C 89.9757,36.7314 85.3091,38.2314 80.5,39C 82.8493,33.0782 84.1826,26.9115 84.5,20.5 Z M 43.5,44.5 C 44.2485,45.531 44.9152,46.6976 45.5,48C 41.4467,48.4684 40.78,47.3017 43.5,44.5 Z M 50.5,53.5 C 54.7766,53.9001 55.2766,55.2334 52,57.5C 50.8118,56.4366 50.3118,55.1033 50.5,53.5 Z M 33.5,58.5 C 34.2485,59.531 34.9152,60.6976 35.5,62C 31.4467,62.4684 30.78,61.3017 33.5,58.5 Z M 14.5,63.5 C 15.2485,64.531 15.9152,65.6976 16.5,67C 12.4467,67.4684 11.78,66.3017 14.5,63.5 Z M 40.5,69.5 C 44.6189,68.463 45.1189,69.463 42,72.5C 41.7679,71.2625 41.2679,70.2625 40.5,69.5 Z M 18.5,74.5 C 18.4701,73.5028 18.9701,72.8361 20,72.5C 21.6349,72.8777 23.1349,73.5444 24.5,74.5C 24.1924,75.3081 23.6924,75.9747 23,76.5C 21.951,74.8934 20.451,74.2267 18.5,74.5 Z M 5.5,82.5 C 7.2726,83.3143 7.7726,84.6476 7,86.5C 5.93257,85.8095 4.76591,85.3095 3.5,85C 4.38053,84.2917 5.0472,83.4584 5.5,82.5 Z M 12.5,92.5 C 16.6189,91.463 17.1189,92.463 14,95.5C 13.7679,94.2625 13.2679,93.2625 12.5,92.5 Z"/></g>
</svg>
