<?xml version="1.0" encoding="UTF-8"?>
<!DOCTYPE svg PUBLIC "-//W3C//DTD SVG 1.1//EN" "http://www.w3.org/Graphics/SVG/1.1/DTD/svg11.dtd">
<svg xmlns="http://www.w3.org/2000/svg" version="1.1" width="100px" height="100px" style="shape-rendering:geometricPrecision; text-rendering:geometricPrecision; image-rendering:optimizeQuality; fill-rule:evenodd; clip-rule:evenodd" xmlns:xlink="http://www.w3.org/1999/xlink">
<g><path style="opacity:0.723" fill="#fefffe" d="M 42.5,5.5 C 52.6015,4.80248 61.1015,8.13581 68,15.5C 69.6067,24.0638 69.94,32.7305 69,41.5C 66.2265,43.8214 64.7265,46.8214 64.5,50.5C 69.456,51.4941 74.456,51.8275 79.5,51.5C 79.1697,58.5316 79.503,65.5316 80.5,72.5C 87.623,77.9826 88.2896,84.1493 82.5,91C 79.1157,93.2871 76.1157,92.9537 73.5,90C 67.5,89.3333 61.5,89.3333 55.5,90C 51.5,93.3333 47.5,93.3333 43.5,90C 37.5,89.3333 31.5,89.3333 25.5,90C 20.2824,93.38 16.1157,92.2134 13,86.5C 11.229,80.3805 13.0624,75.7138 18.5,72.5C 19.497,65.5316 19.8303,58.5316 19.5,51.5C 24.544,51.8275 29.544,51.4941 34.5,50.5C 34.2735,46.8214 32.7735,43.8214 30,41.5C 29.6667,35.8333 29.3333,30.1667 29,24.5C 27.8415,22.5091 26.3415,20.8424 24.5,19.5C 29.4807,13.3638 35.4807,8.69709 42.5,5.5 Z M 45.5,8.5 C 49.9609,8.15141 53.6276,9.65141 56.5,13C 64.3722,14.2036 67.5389,18.7036 66,26.5C 63.317,17.4023 58.1504,15.5689 50.5,21C 42.8878,20.4137 37.0545,23.2471 33,29.5C 32.6667,26.8333 32.3333,24.1667 32,21.5C 31.1667,20.6667 30.3333,19.8333 29.5,19C 34.0771,14.2203 39.4105,10.7203 45.5,8.5 Z M 57.5,21.5 C 59.4513,22.2823 60.9513,23.6156 62,25.5C 62.4988,29.4862 62.6655,33.4862 62.5,37.5C 64.1092,37.0941 65.4425,37.0941 66.5,37.5C 65.9234,39.5499 64.5901,40.5499 62.5,40.5C 62.6488,43.6074 62.1488,46.6074 61,49.5C 57.3465,51.073 53.5132,52.4064 49.5,53.5C 46.2637,52.2657 42.9304,51.4324 39.5,51C 37.0713,47.9587 36.0713,44.4587 36.5,40.5C 34.4099,40.5499 33.0766,39.5499 32.5,37.5C 33.5575,37.0941 34.8908,37.0941 36.5,37.5C 35.4262,32.365 37.0928,28.5317 41.5,26C 46.5238,25.0809 51.5238,24.0809 56.5,23C 57.056,22.6174 57.3893,22.1174 57.5,21.5 Z M 46.5,57.5 C 48.5,57.5 50.5,57.5 52.5,57.5C 52.62,58.5862 53.2867,59.2528 54.5,59.5C 56.8718,58.6372 56.8718,57.4705 54.5,56C 54.8333,55.6667 55.1667,55.3333 55.5,55C 62.4921,54.5004 69.4921,54.3337 76.5,54.5C 76.8308,62.1955 76.4975,69.8622 75.5,77.5C 71.5323,78.9597 70.5323,81.6264 72.5,85.5C 64.7543,86.0407 57.0877,87.0407 49.5,88.5C 41.9123,87.0407 34.2457,86.0407 26.5,85.5C 28.4677,81.6264 27.4677,78.9597 23.5,77.5C 22.5025,69.8622 22.1692,62.1955 22.5,54.5C 29.5079,54.3337 36.5079,54.5004 43.5,55C 43.8333,55.3333 44.1667,55.6667 44.5,56C 42.1282,57.4705 42.1282,58.6372 44.5,59.5C 45.7133,59.2528 46.38,58.5862 46.5,57.5 Z M 18.5,76.5 C 19.0537,78.8888 20.5537,80.5555 23,81.5C 23.0178,83.7972 22.8511,86.1305 22.5,88.5C 16.8473,88.0559 15.0139,85.0559 17,79.5C 17.5133,78.4734 18.0133,77.4734 18.5,76.5 Z M 79.5,76.5 C 82.3033,79.2036 83.1366,82.5369 82,86.5C 80.4157,87.8613 78.5824,88.528 76.5,88.5C 76.5668,86.5992 76.2335,84.7659 75.5,83C 76.0762,81.2856 77.2429,80.1189 79,79.5C 79.4828,78.552 79.6495,77.552 79.5,76.5 Z"/></g>
<g><path style="opacity:0.673" fill="#fefffe" d="M 40.5,35.5 C 41.8333,35.5 43.1667,35.5 44.5,35.5C 44.5,36.8333 44.5,38.1667 44.5,39.5C 43.1667,39.5 41.8333,39.5 40.5,39.5C 40.5,38.1667 40.5,36.8333 40.5,35.5 Z"/></g>
<g><path style="opacity:0.673" fill="#fefffe" d="M 54.5,35.5 C 55.8333,35.5 57.1667,35.5 58.5,35.5C 58.5,36.8333 58.5,38.1667 58.5,39.5C 57.1667,39.5 55.8333,39.5 54.5,39.5C 54.5,38.1667 54.5,36.8333 54.5,35.5 Z"/></g>
<g><path style="opacity:0.479" fill="#fefffe" d="M 43.5,61.5 C 44.9953,61.4148 45.9953,62.0815 46.5,63.5C 45.1667,64.8333 43.8333,64.8333 42.5,63.5C 42.8627,62.8165 43.1961,62.1499 43.5,61.5 Z"/></g>
<g><path style="opacity:0.479" fill="#fefffe" d="M 53.5,61.5 C 54.9953,61.4148 55.9953,62.0815 56.5,63.5C 55.1667,64.8333 53.8333,64.8333 52.5,63.5C 52.8627,62.8165 53.1961,62.1499 53.5,61.5 Z"/></g>
<g><path style="opacity:0.479" fill="#fefffe" d="M 43.5,66.5 C 44.9953,66.4148 45.9953,67.0815 46.5,68.5C 45.1667,69.8333 43.8333,69.8333 42.5,68.5C 42.8627,67.8165 43.1961,67.1499 43.5,66.5 Z"/></g>
<g><path style="opacity:0.479" fill="#fefffe" d="M 53.5,66.5 C 54.9953,66.4148 55.9953,67.0815 56.5,68.5C 55.1667,69.8333 53.8333,69.8333 52.5,68.5C 52.8627,67.8165 53.1961,67.1499 53.5,66.5 Z"/></g>
<g><path style="opacity:0.479" fill="#fefffe" d="M 43.5,71.5 C 44.9953,71.4148 45.9953,72.0815 46.5,73.5C 45.1667,74.8333 43.8333,74.8333 42.5,73.5C 42.8627,72.8165 43.1961,72.1499 43.5,71.5 Z"/></g>
<g><path style="opacity:0.479" fill="#fefffe" d="M 53.5,71.5 C 54.9953,71.4148 55.9953,72.0815 56.5,73.5C 55.1667,74.8333 53.8333,74.8333 52.5,73.5C 52.8627,72.8165 53.1961,72.1499 53.5,71.5 Z"/></g>
<g><path style="opacity:0.479" fill="#fefffe" d="M 43.5,76.5 C 44.9953,76.4148 45.9953,77.0815 46.5,78.5C 45.1667,79.8333 43.8333,79.8333 42.5,78.5C 42.8627,77.8165 43.1961,77.1499 43.5,76.5 Z"/></g>
<g><path style="opacity:0.479" fill="#fefffe" d="M 53.5,76.5 C 54.9953,76.4148 55.9953,77.0815 56.5,78.5C 55.1667,79.8333 53.8333,79.8333 52.5,78.5C 52.8627,77.8165 53.1961,77.1499 53.5,76.5 Z"/></g>
<g><path style="opacity:0.479" fill="#fefffe" d="M 43.5,81.5 C 44.9953,81.4148 45.9953,82.0815 46.5,83.5C 45.1667,84.8333 43.8333,84.8333 42.5,83.5C 42.8627,82.8165 43.1961,82.1499 43.5,81.5 Z"/></g>
<g><path style="opacity:0.479" fill="#fefffe" d="M 53.5,81.5 C 54.9953,81.4148 55.9953,82.0815 56.5,83.5C 55.1667,84.8333 53.8333,84.8333 52.5,83.5C 52.8627,82.8165 53.1961,82.1499 53.5,81.5 Z"/></g>
</svg>
