<svg aria-hidden="true" style="position: absolute; width: 0; height: 0; overflow: hidden;" version="1.1" xmlns="http://www.w3.org/2000/svg" xmlns:xlink="http://www.w3.org/1999/xlink">
<defs>
<symbol id="icon-art" viewBox="0 0 32 32">
<path fill="#fefffe" style="fill: var(--color1, #fefffe)" opacity="0.785" d="M14.88 1.76c-0.379 0.38-0.379 0.753 0 1.12-1.383 0.454-2.769 0.507-4.16 0.16-0.357-0.9-0.944-1.114-1.76-0.64 0.224 1.568 0.384 3.168 0.48 4.8-1.678-0.195-3.172 0.178-4.48 1.12 0.569 3.518 1.209 7.038 1.92 10.56-0.96 2.667-1.92 5.333-2.88 8 0.086 0.514 0.353 0.888 0.8 1.12 1.202-1.895 2.162-3.921 2.88-6.080 0.268 0.592 0.535 1.179 0.8 1.76 1.295-0.058 2.575-0.005 3.84 0.16 0.461 2.233 0.888 4.473 1.28 6.72 0.784 0.157 1.317-0.11 1.6-0.8-0.275-1.004-0.489-2.017-0.64-3.040 3.637-0.464 7.264-0.997 10.88-1.6 0.189 1.021 0.563 1.981 1.12 2.88 0.434 0.282 0.914 0.388 1.44 0.32 0.051-0.544-0.002-1.077-0.16-1.6-0.965-1.608-1.658-3.315-2.080-5.12 0.853 0 1.707 0 2.56 0 0.051-0.544-0.002-1.077-0.16-1.6-2.203-4.35-4.176-8.777-5.92-13.28-1.28-0.107-2.56-0.213-3.84-0.32-0.788-1.415-1.534-2.855-2.24-4.32-0.38-0.297-0.807-0.404-1.28-0.32zM14.24 4.64c0.44-0.050 0.866 0.003 1.28 0.16 0.32 0.533 0.64 1.067 0.96 1.6-0.847 0.159-1.7 0.213-2.56 0.16 0.107-0.64 0.213-1.28 0.32-1.92zM11.040 4.96c0.427 0 0.853 0 1.28 0-0.591 2.52-1.017 2.52-1.28 0zM21.6 11.36c0 0.32 0 0.64 0 0.96 0.439-0.050 0.866 0.003 1.28 0.16-0.421 0.633-0.261 1.113 0.48 1.44 0.994 1.881 1.901 3.801 2.72 5.76-0.487 0.57-1.127 0.784-1.92 0.64 0-0.32 0-0.64 0-0.96-0.684 0.065-1.218 0.385-1.6 0.96-0.283-0.264-0.39-0.584-0.32-0.96-0.791 0.076-1.325 0.502-1.6 1.28-0.283-0.264-0.39-0.584-0.32-0.96-0.757 0.212-1.397 0.639-1.92 1.28-0.283-0.264-0.39-0.584-0.32-0.96-0.791 0.076-1.325 0.502-1.6 1.28-0.213-0.427-0.427-0.853-0.64-1.28-0.429 0.437-0.855 0.864-1.28 1.28-0.614-0.827-1.147-0.72-1.6 0.32-0.283-0.264-0.39-0.584-0.32-0.96-0.78 0.748-1.74 1.282-2.88 1.6-0.731-1.642-1.264-3.348-1.6-5.12 1.25-0.661 1.144-1.141-0.32-1.44 0.414-0.157 0.841-0.21 1.28-0.16 0-0.32 0-0.64 0-0.96-0.878 0.096-1.411-0.277-1.6-1.12-0.355-1.431-0.515-2.871-0.48-4.32 2.095-0.75 4.175-0.75 6.24 0-0.070-0.376 0.037-0.696 0.32-0.96 0.382 0.575 0.916 0.895 1.6 0.96-0.048-0.337 0.005-0.657 0.16-0.96 0.236 0.344 0.556 0.557 0.96 0.64 1.604-0.693 3.257-0.8 4.96-0.32 0.138 0.254 0.245 0.521 0.32 0.8-0.544 0.595-0.864 1.289-0.96 2.080 0.32 0 0.64 0 0.96 0zM10.4 11.040c0.562 0.337 0.775 0.87 0.64 1.6-0.32 0-0.64 0-0.96 0-0.043-0.573 0.064-1.107 0.32-1.6zM18.4 12c1.497 1.759 2.884 3.626 4.16 5.6-2.155 0.263-4.288 0.477-6.4 0.64 0.793-2.065 1.539-4.145 2.24-6.24zM13.6 14.88c0.878 0.396 1.625 0.983 2.24 1.76-0.198 0.708-0.572 1.295-1.12 1.76-0.873 0.18-1.726 0.393-2.56 0.64 0.438-1.367 0.918-2.754 1.44-4.16zM22.56 21.92c1.039-0.066 1.679 0.414 1.92 1.44-3.367 0.712-6.727 1.405-10.080 2.080-0.099-0.658-0.259-1.298-0.48-1.92 0.16-0.107 0.32-0.213 0.48-0.32 2.769-0.391 5.489-0.818 8.16-1.28z"></path>
<path fill="#fefffe" style="fill: var(--color1, #fefffe)" opacity="0.766" d="M19.36 9.12c0.588 0.045 0.695 0.258 0.32 0.64-0.255-0.146-0.362-0.36-0.32-0.64z"></path>
<path fill="#fefffe" style="fill: var(--color1, #fefffe)" opacity="0.649" d="M10.4 9.76c1.741 0.797 2.168 2.024 1.28 3.68-2.242 0.424-3.042-0.483-2.4-2.72 0.366-0.364 0.74-0.684 1.12-0.96zM10.4 11.040c-0.256 0.493-0.363 1.027-0.32 1.6 0.32 0 0.64 0 0.96 0 0.135-0.73-0.078-1.263-0.64-1.6z"></path>
<path fill="#fefffe" style="fill: var(--color1, #fefffe)" opacity="0.766" d="M13.6 10.4c0.588 0.045 0.695 0.258 0.32 0.64-0.255-0.146-0.362-0.36-0.32-0.64z"></path>
<path fill="#fefffe" style="fill: var(--color1, #fefffe)" opacity="0.647" d="M17.76 10.4c0.473-0.084 0.9 0.023 1.28 0.32 1.44 2.027 2.88 4.053 4.32 6.080 0.38 0.494 0.487 1.028 0.32 1.6-4.314 0.474-8.634 1.007-12.96 1.6 0.619-2.176 1.365-4.309 2.24-6.4 1.109-0.017 1.963 0.463 2.56 1.44 0.213 0.213 0.427 0.213 0.64 0 0.756-1.469 1.29-3.015 1.6-4.64zM18.4 12c-0.701 2.095-1.448 4.175-2.24 6.24 2.112-0.163 4.245-0.377 6.4-0.64-1.276-1.974-2.663-3.841-4.16-5.6zM13.6 14.88c-0.522 1.406-1.002 2.793-1.44 4.16 0.834-0.247 1.688-0.46 2.56-0.64 0.548-0.465 0.922-1.052 1.12-1.76-0.615-0.777-1.362-1.364-2.24-1.76z"></path>
<path fill="#fefffe" style="fill: var(--color1, #fefffe)" opacity="0.766" d="M15.2 12.96c0.588 0.045 0.695 0.258 0.32 0.64-0.255-0.146-0.362-0.36-0.32-0.64z"></path>
</symbol>
<symbol id="icon-character" viewBox="0 0 32 32">
<path fill="#fefffe" style="fill: var(--color1, #fefffe)" opacity="0.761" d="M15.2 0.16c-1.367 0.261-2.433 1.008-3.2 2.24-0.752 0.164-1.392 0.484-1.92 0.96 0.487 0.122 1.020 0.175 1.6 0.16-0.349 0.66-0.403 1.354-0.16 2.080 0.584 1.593 1.49 2.98 2.72 4.16-0.067 0.188-0.174 0.348-0.32 0.48-2.625-0.344-4.119 0.776-4.48 3.36-0.053 2.673 0.107 5.34 0.48 8 0.572 0.553 1.266 0.767 2.080 0.64 0.203 2.109 0.523 4.189 0.96 6.24-0.531 0.843-0.691 1.749-0.48 2.72 2.24 0.427 4.48 0.427 6.72 0 0.067-0.755 0.12-1.448 0.16-2.080-0.213-0.213-0.427-0.427-0.64-0.64 0.437-2.051 0.757-4.131 0.96-6.24 0.814 0.127 1.508-0.087 2.080-0.64 0.373-2.66 0.533-5.327 0.48-8-0.361-2.584-1.855-3.704-4.48-3.36-0.146-0.132-0.253-0.292-0.32-0.48 1.23-1.18 2.136-2.567 2.72-4.16 0.243-0.726 0.189-1.42-0.16-2.080 0.58 0.015 1.113-0.038 1.6-0.16-0.528-0.476-1.168-0.796-1.92-0.96-1.054-1.594-2.548-2.341-4.48-2.24zM18.72 4.32c-0.527-0.419-1.061-0.846-1.6-1.28-1.2 1.457-2.693 1.991-4.48 1.6 0.815-2.808 2.521-3.608 5.12-2.4 0.624 0.555 0.944 1.248 0.96 2.080zM16.8 4.96c1.345 0.465 1.611 1.318 0.8 2.56-1.676 1.275-3.009 0.955-4-0.96 1.222-0.296 2.288-0.829 3.2-1.6zM15.52 9.76c0.717 0.256 1.037 0.789 0.96 1.6-0.427 0-0.853 0-1.28 0 0.041-0.549 0.148-1.082 0.32-1.6zM11.68 11.68c1.42 0.133 2.807 0.453 4.16 0.96 0.835-0.047 1.582-0.314 2.24-0.8 0.911-0.302 1.711-0.142 2.4 0.48 0.266 2.141 0.213 4.275-0.16 6.4-0.265-1.375-0.425-2.761-0.48-4.16-0.32-0.427-0.64-0.427-0.96 0-0.16 1.383-0.213 2.769-0.16 4.16-1.92 0-3.84 0-5.76 0 0.053-1.391-0-2.777-0.16-4.16-0.32-0.427-0.64-0.427-0.96 0-0.055 1.399-0.215 2.785-0.48 4.16-0.373-2.125-0.426-4.259-0.16-6.4 0.229-0.174 0.389-0.387 0.48-0.64zM11.040 20c0.588 0.045 0.695 0.258 0.32 0.64-0.255-0.146-0.362-0.36-0.32-0.64zM12.96 20.32c1.862-0.369 3.782-0.422 5.76-0.16-0.49 2.475-0.863 4.981-1.12 7.52-0.324 0.268-0.697 0.374-1.12 0.32 0-2.027 0-4.053 0-6.080-0.427 0-0.853 0-1.28 0 0 2.027 0 4.053 0 6.080-0.423 0.054-0.796-0.052-1.12-0.32-0.247-2.518-0.62-4.972-1.12-7.36zM20 20c0.588 0.045 0.695 0.258 0.32 0.64-0.255-0.146-0.362-0.36-0.32-0.64zM13.92 29.28c0.473-0.084 0.9 0.023 1.28 0.32-0.213 0.107-0.427 0.213-0.64 0.32-0.388-0.079-0.602-0.292-0.64-0.64zM16.48 29.28c0.473-0.084 0.9 0.023 1.28 0.32-0.213 0.107-0.427 0.213-0.64 0.32-0.388-0.079-0.602-0.292-0.64-0.64z"></path>
<path fill="#fefffe" style="fill: var(--color1, #fefffe)" opacity="0.36" d="M8.48 3.68c0.376-0.070 0.696 0.037 0.96 0.32-0.411 0.691-0.944 0.904-1.6 0.64 0.222-0.326 0.435-0.646 0.64-0.96z"></path>
<path fill="#fefffe" style="fill: var(--color1, #fefffe)" opacity="0.36" d="M22.24 3.68c1.046-0.024 1.472 0.402 1.28 1.28-0.739-0.149-1.165-0.576-1.28-1.28z"></path>
<path fill="#fefffe" style="fill: var(--color1, #fefffe)" opacity="0.391" d="M6.88 4.96c0.438 0.706 0.225 1.24-0.64 1.6-0.107-0.16-0.213-0.32-0.32-0.48 0.334-0.376 0.654-0.749 0.96-1.12z"></path>
<path fill="#fefffe" style="fill: var(--color1, #fefffe)" opacity="0.397" d="M24.48 4.96c0.487 0.298 0.914 0.671 1.28 1.12-0.367 0.552-0.741 0.499-1.12-0.16-0.154-0.303-0.208-0.623-0.16-0.96z"></path>
<path fill="#fefffe" style="fill: var(--color1, #fefffe)" opacity="0.36" d="M4.96 6.88c0.28-0.042 0.494 0.065 0.64 0.32-0.168 0.554-0.488 0.98-0.96 1.28-0.369-0.607-0.262-1.14 0.32-1.6z"></path>
<path fill="#fefffe" style="fill: var(--color1, #fefffe)" opacity="0.359" d="M26.080 6.88c1.030 0.167 1.35 0.7 0.96 1.6-0.564-0.38-0.884-0.914-0.96-1.6z"></path>
<path fill="#fefffe" style="fill: var(--color1, #fefffe)" opacity="0.335" d="M3.36 9.12c0.376-0.070 0.696 0.037 0.96 0.32-0.996 1.757-1.316 1.65-0.96-0.32z"></path>
<path fill="#fefffe" style="fill: var(--color1, #fefffe)" opacity="0.336" d="M27.36 9.12c1.068 0.112 1.388 0.645 0.96 1.6-0.564-0.38-0.884-0.914-0.96-1.6z"></path>
<path fill="#fefffe" style="fill: var(--color1, #fefffe)" opacity="0.426" d="M2.72 11.36c0.28-0.042 0.494 0.065 0.64 0.32-0.745 1.618-0.958 1.512-0.64-0.32z"></path>
<path fill="#fefffe" style="fill: var(--color1, #fefffe)" opacity="0.423" d="M28.32 11.36c0.935 0.212 1.149 0.746 0.64 1.6-0.34-0.487-0.553-1.020-0.64-1.6z"></path>
<path fill="#fefffe" style="fill: var(--color1, #fefffe)" opacity="0.448" d="M6.88 13.28c0.572-0.091 1.106 0.015 1.6 0.32-0.267 0.107-0.533 0.213-0.8 0.32-0.44-0.059-0.707-0.272-0.8-0.64z"></path>
<path fill="#fefffe" style="fill: var(--color1, #fefffe)" opacity="0.45" d="M23.2 13.28c0.572-0.091 1.105 0.015 1.6 0.32-0.267 0.107-0.533 0.213-0.8 0.32-0.44-0.059-0.707-0.272-0.8-0.64z"></path>
<path fill="#fefffe" style="fill: var(--color1, #fefffe)" opacity="0.448" d="M4.64 13.6c0.572-0.091 1.106 0.015 1.6 0.32-0.267 0.107-0.533 0.213-0.8 0.32-0.44-0.059-0.707-0.272-0.8-0.64z"></path>
<path fill="#fefffe" style="fill: var(--color1, #fefffe)" opacity="0.448" d="M25.44 13.6c0.572-0.091 1.105 0.015 1.6 0.32-0.267 0.107-0.533 0.213-0.8 0.32-0.44-0.059-0.707-0.272-0.8-0.64z"></path>
<path fill="#fefffe" style="fill: var(--color1, #fefffe)" opacity="0.437" d="M2.080 13.92c2.495 0.176 2.495 0.496 0 0.96 0-0.32 0-0.64 0-0.96z"></path>
<path fill="#fefffe" style="fill: var(--color1, #fefffe)" opacity="0.444" d="M27.68 13.92c0.64 0 1.28 0 1.92 0 0 0.32 0 0.64 0 0.96-0.926 0.15-1.566-0.17-1.92-0.96z"></path>
<path fill="#fefffe" style="fill: var(--color1, #fefffe)" opacity="0.365" d="M0.8 14.88c0.32 0 0.64 0 0.96 0 0 0.427 0 0.853 0 1.28-0.32 0-0.64 0-0.96 0 0-0.427 0-0.853 0-1.28z"></path>
<path fill="#fefffe" style="fill: var(--color1, #fefffe)" opacity="0.361" d="M29.92 14.88c0.32 0 0.64 0 0.96 0 0 0.427 0 0.853 0 1.28-0.32 0-0.64 0-0.96 0 0-0.427 0-0.853 0-1.28z"></path>
<path fill="#fefffe" style="fill: var(--color1, #fefffe)" opacity="0.419" d="M2.080 16.16c0.745-0.081 1.385 0.132 1.92 0.64-0.368 0.394-0.742 0.394-1.12 0-0.098 0.259-0.258 0.472-0.48 0.64-0.297-0.38-0.404-0.807-0.32-1.28z"></path>
<path fill="#fefffe" style="fill: var(--color1, #fefffe)" opacity="0.464" d="M28.32 16.16c0.427 0 0.853 0 1.28 0 0.084 0.473-0.023 0.9-0.32 1.28-0.222-0.168-0.382-0.381-0.48-0.64-0.777 0.341-0.937 0.128-0.48-0.64z"></path>
<path fill="#fefffe" style="fill: var(--color1, #fefffe)" opacity="0.449" d="M4.64 16.8c0.572-0.091 1.106 0.015 1.6 0.32-0.267 0.107-0.533 0.213-0.8 0.32-0.44-0.059-0.707-0.272-0.8-0.64z"></path>
<path fill="#fefffe" style="fill: var(--color1, #fefffe)" opacity="0.446" d="M25.44 16.8c0.572-0.091 1.105 0.015 1.6 0.32-0.267 0.107-0.533 0.213-0.8 0.32-0.44-0.059-0.707-0.272-0.8-0.64z"></path>
<path fill="#fefffe" style="fill: var(--color1, #fefffe)" opacity="0.448" d="M6.88 17.12c0.572-0.091 1.106 0.015 1.6 0.32-0.267 0.107-0.533 0.213-0.8 0.32-0.44-0.059-0.707-0.272-0.8-0.64z"></path>
<path fill="#fefffe" style="fill: var(--color1, #fefffe)" opacity="0.447" d="M23.2 17.12c0.572-0.091 1.105 0.015 1.6 0.32-0.267 0.107-0.533 0.213-0.8 0.32-0.44-0.059-0.707-0.272-0.8-0.64z"></path>
<path fill="#fefffe" style="fill: var(--color1, #fefffe)" opacity="0.395" d="M2.4 18.080c0.507 0.312 0.827 0.792 0.96 1.44-0.16 0.16-0.32 0.32-0.48 0.48-0.422-0.56-0.582-1.2-0.48-1.92z"></path>
<path fill="#fefffe" style="fill: var(--color1, #fefffe)" opacity="0.472" d="M28.64 18.080c0.368 0.093 0.581 0.36 0.64 0.8-0.107 0.267-0.213 0.533-0.32 0.8-0.305-0.494-0.411-1.028-0.32-1.6z"></path>
<path fill="#fefffe" style="fill: var(--color1, #fefffe)" opacity="0.393" d="M3.040 20.64c0.935 0.212 1.149 0.746 0.64 1.6-0.464-0.432-0.677-0.965-0.64-1.6z"></path>
<path fill="#fefffe" style="fill: var(--color1, #fefffe)" opacity="0.394" d="M28 20.64c0.767 0.425 0.767 0.958 0 1.6-0.373-0.534-0.373-1.067 0-1.6z"></path>
<path fill="#fefffe" style="fill: var(--color1, #fefffe)" opacity="0.336" d="M4.32 22.88c1.030 0.167 1.35 0.7 0.96 1.6-0.722-0.295-1.042-0.828-0.96-1.6z"></path>
<path fill="#fefffe" style="fill: var(--color1, #fefffe)" opacity="0.364" d="M26.72 22.88c0.795 0.489 0.742 1.022-0.16 1.6-0.577-0.567-0.523-1.101 0.16-1.6z"></path>
<path fill="#fefffe" style="fill: var(--color1, #fefffe)" opacity="0.47" d="M5.92 24.8c0.603 0.068 1.030 0.388 1.28 0.96-0.73 0.244-1.157-0.076-1.28-0.96z"></path>
<path fill="#fefffe" style="fill: var(--color1, #fefffe)" opacity="0.473" d="M25.12 24.8c0.763 0.438 0.657 0.864-0.32 1.28-0.107-0.107-0.213-0.213-0.32-0.32 0.222-0.326 0.435-0.646 0.64-0.96z"></path>
<path fill="#fefffe" style="fill: var(--color1, #fefffe)" opacity="0.367" d="M7.84 26.4c0.686 0.076 1.22 0.396 1.6 0.96-0.9 0.39-1.433 0.070-1.6-0.96z"></path>
<path fill="#fefffe" style="fill: var(--color1, #fefffe)" opacity="0.365" d="M23.2 26.4c0.28-0.042 0.494 0.065 0.64 0.32-0.325 0.854-0.858 1.067-1.6 0.64 0.269-0.395 0.589-0.715 0.96-0.96z"></path>
<path fill="#fefffe" style="fill: var(--color1, #fefffe)" opacity="0.397" d="M10.080 27.68c0.635-0.037 1.168 0.176 1.6 0.64-0.854 0.509-1.388 0.295-1.6-0.64z"></path>
<path fill="#fefffe" style="fill: var(--color1, #fefffe)" opacity="0.392" d="M20.64 27.68c0.593-0.073 0.86 0.14 0.8 0.64-0.478 0.399-0.958 0.399-1.44 0 0.238-0.218 0.451-0.432 0.64-0.64z"></path>
</symbol>
<symbol id="icon-food" viewBox="0 0 32 32">
<path fill="#fefffe" style="fill: var(--color1, #fefffe)" opacity="0.788" d="M10.72 1.76c-0.050 0.44 0.003 0.866 0.16 1.28 1.209 0.917 2.116 2.090 2.72 3.52-0.107 0.107-0.213 0.213-0.32 0.32-4.086-1.535-7.553-0.681-10.4 2.56-2.482 7.432-0.616 13.512 5.6 18.24 0.365-0.615 0.418-1.255 0.16-1.92-4.101-3.554-5.808-8.034-5.12-13.44 0.556-2.156 1.889-3.596 4-4.32 2.586-0.531 4.933-0.051 7.040 1.44 0.859-0.643 1.819-1.123 2.88-1.44 3.99-0.859 6.71 0.581 8.16 4.32 0.368 2.486 0.102 4.886-0.8 7.2 0.631 0.159 1.271 0.212 1.92 0.16 0.604-2.526 0.764-5.086 0.48-7.68-0.967-3.313-3.154-5.287-6.56-5.92 0.748-1.339 1.068-2.779 0.96-4.32-3.047-0.498-5.34 0.569-6.88 3.2-0.748-1.875-2.082-2.942-4-3.2zM18.72 3.36c0.439-0.050 0.866 0.003 1.28 0.16-0.3 0.866-0.726 1.666-1.28 2.4-0.934 0.261-1.841 0.581-2.72 0.96-0.167-0.572-0.060-1.106 0.32-1.6 0.677-0.839 1.477-1.479 2.4-1.92z"></path>
<path fill="#fefffe" style="fill: var(--color1, #fefffe)" opacity="0.943" d="M28.64 14.56c0.072 1.519-0.088 3.013-0.48 4.48-0.373 0.587-0.853 1.067-1.44 1.44-5.529 0.462-11.075 0.622-16.64 0.48 0 2.987 0 5.973 0 8.96 6.003 0.152 11.977-0.008 17.92-0.48 0.843-0.627 1.43-1.427 1.76-2.4 0.213-3.733 0.213-7.467 0-11.2-0.211-0.584-0.585-1.010-1.12-1.28zM28.32 21.28c0.419 1.778 0.366 3.591-0.16 5.44-0.373 0.587-0.853 1.067-1.44 1.44-5.102 0.46-10.222 0.62-15.36 0.48 0-2.133 0-4.267 0-6.4 0.853 0 1.707 0 2.56 0 0 1.067 0 2.133 0 3.2 0.427 0 0.853 0 1.28 0 0-1.067 0-2.133 0-3.2 0.853 0 1.707 0 2.56 0 0 1.493 0 2.987 0 4.48 0.427 0 0.853 0 1.28 0 0-1.493 0-2.987 0-4.48 0.853 0 1.707 0 2.56 0 0 1.28 0 2.56 0 3.84 0.427 0 0.853 0 1.28 0 0-1.28 0-2.56 0-3.84 0.853 0 1.707 0 2.56 0 0 1.493 0 2.987 0 4.48 0.427 0 0.853 0 1.28 0-0.053-1.497 0-2.99 0.16-4.48 0.601-0.177 1.081-0.497 1.44-0.96z"></path>
</symbol>
<symbol id="icon-house" viewBox="0 0 32 32">
<path fill="#fefffe" style="fill: var(--color1, #fefffe)" opacity="0.7" d="M17.12 5.6c-0.97 1.020-2.090 1.873-3.36 2.56-0.892-0.623-1.799-1.21-2.72-1.76-1.633-0.093-3.233 0.12-4.8 0.64-0.504 0.584-0.77 1.278-0.8 2.080-0.484 0.242-0.911 0.562-1.28 0.96-0.297 1.303-0.617 2.583-0.96 3.84-0.213 0.853-0.213 1.707 0 2.56 0.29 0.945 0.663 1.852 1.12 2.72 2.749 0.192 3.762 1.632 3.040 4.32-0.358 0.725-0.624 1.472-0.8 2.24 6.827 0.053 13.654 0 20.48-0.16 0.882-1.058 0.828-2.072-0.16-3.040-0.213-2.133-0.213-4.267 0-6.4 0.324 0.268 0.697 0.374 1.12 0.32 0.472-2.263-0.221-3.97-2.080-5.12-0.053-0.587-0.107-1.173-0.16-1.76 0.196-1.133 0.41-2.253 0.64-3.36-1.28 0-2.56 0-3.84 0 0.192 0.976 0.352 1.936 0.48 2.88-1.547-1.12-3.093-2.24-4.64-3.36-0.414-0.157-0.84-0.21-1.28-0.16zM17.44 6.56c2.532 1.466 4.771 3.279 6.72 5.44 0.107-0.107 0.213-0.213 0.32-0.32-0.462-1.683-0.889-3.39-1.28-5.12 0.853 0 1.707 0 2.56 0-0.468 1.885-0.788 3.805-0.96 5.76 0.915 0.218 1.715 0.644 2.4 1.28 0.213 0.533 0.213 1.067 0 1.6-3.019-2.441-6.165-4.681-9.44-6.72-3.275 2.039-6.421 4.279-9.44 6.72-0.287-0.808-0.127-1.501 0.48-2.080 3.030-2.020 5.91-4.207 8.64-6.56zM9.12 7.2c1.29 0.375 2.57 0.855 3.84 1.44-1.968 1.436-3.835 2.982-5.6 4.64-0.213 0.96-0.213 1.92 0 2.88 0.427 0.427 0.853 0.427 1.28 0 0.264 1.293 0.211 2.573-0.16 3.84-0.581-0.421-1.114-0.901-1.6-1.44-0.724-0.076-1.418-0.236-2.080-0.48-0.575-1.217-0.789-2.497-0.64-3.84 0.515-0.207 0.995-0.474 1.44-0.8-0.303-0.155-0.623-0.208-0.96-0.16-0.46-1.798 0.18-2.865 1.92-3.2-0.354-2.212 0.393-2.746 2.24-1.6 0.092-0.435 0.199-0.862 0.32-1.28zM17.44 9.44c2.893 1.903 5.719 3.93 8.48 6.080 0.117 1.816 0.064 3.629-0.16 5.44-1.612 0.028-3.212 0.188-4.8 0.48-0.173 0.722-0.547 1.308-1.12 1.76-0.159 0.631-0.212 1.271-0.16 1.92-0.853 0-1.707 0-2.56 0 0-2.453 0-4.907 0-7.36-1.707 0-3.413 0-5.12 0 0 2.453 0 4.907 0 7.36-0.853 0-1.707 0-2.56 0-0.053-3.202 0-6.402 0.16-9.6 2.673-1.983 5.286-4.010 7.84-6.080zM19.36 15.2c0.533 0 1.067 0 1.6 0 0 1.173 0 2.347 0 3.52-0.533 0-1.067 0-1.6 0 0-1.173 0-2.347 0-3.52zM12.32 18.080c1.493 0 2.987 0 4.48 0 0 2.347 0 4.693 0 7.040-1.493 0-2.987 0-4.48 0 0-2.347 0-4.693 0-7.040zM7.84 20.96c0.32 0 0.64 0 0.96 0 0 1.493 0 2.987 0 4.48-0.544 0.051-1.077-0.002-1.6-0.16 0.16-0.16 0.32-0.32 0.48-0.48 0.16-1.276 0.213-2.556 0.16-3.84zM23.52 21.6c0.734-0.082 1.427 0.025 2.080 0.32 0.205 0.836 0.578 1.583 1.12 2.24-0.102 0.367-0.315 0.634-0.64 0.8-1.83 0.252-3.644 0.199-5.44-0.16-0.409-0.681-0.249-1.215 0.48-1.6 0.157-0.414 0.21-0.84 0.16-1.28 0.564-0.046 1.097 0.061 1.6 0.32 0.327-0.114 0.54-0.327 0.64-0.64z"></path>
<path fill="#fefffe" style="fill: var(--color1, #fefffe)" opacity="0.479" d="M7.84 9.44c0.572-0.091 1.105 0.015 1.6 0.32-0.267 0.107-0.533 0.213-0.8 0.32-0.44-0.059-0.707-0.272-0.8-0.64z"></path>
<path fill="#fefffe" style="fill: var(--color1, #fefffe)" opacity="0.326" d="M7.2 9.76c0.408 0.284 0.408 0.604 0 0.96-0.34-0.296-0.34-0.616 0-0.96z"></path>
<path fill="#fefffe" style="fill: var(--color1, #fefffe)" opacity="0.99" d="M19.040 14.88c1.178-0.053 2.352 0 3.52 0.16-0.414 0.157-0.84 0.21-1.28 0.16 0 1.173 0 2.347 0 3.52 0.533 0 1.067 0 1.6 0-0.053-0.966 0.001-1.926 0.16-2.88 0.159 1.061 0.213 2.128 0.16 3.2-1.387 0-2.773 0-4.16 0 0-1.387 0-2.773 0-4.16zM19.36 15.2c0 1.173 0 2.347 0 3.52 0.533 0 1.067 0 1.6 0 0-1.173 0-2.347 0-3.52-0.533 0-1.067 0-1.6 0z"></path>
<path fill="#fefffe" style="fill: var(--color1, #fefffe)" opacity="0.493" d="M5.6 15.84c0.505 0.181 0.932 0.501 1.28 0.96-0.934 0.458-1.361 0.138-1.28-0.96z"></path>
<path fill="#fefffe" style="fill: var(--color1, #fefffe)" opacity="0.766" d="M15.52 21.6c0.588 0.045 0.695 0.258 0.32 0.64-0.255-0.146-0.362-0.36-0.32-0.64z"></path>
</symbol>
<symbol id="icon-kite" viewBox="0 0 32 32">
<path fill="#fefffe" style="fill: var(--color1, #fefffe)" opacity="0.642" d="M24.8-0.16c-1.645 0.316-3.352 0.423-5.12 0.32-0.285 1.231-0.605 2.457-0.96 3.68 0.107 0.267 0.213 0.533 0.32 0.8 0.65-0.979 1.184-2.046 1.6-3.2 1.876 0.991 3.583 2.218 5.12 3.68-3.040 3.040-6.080 6.080-9.12 9.12 0.823-2.845 1.622-5.725 2.4-8.64-0.52-0.045-0.893 0.169-1.12 0.64-0.853 2.773-1.707 5.547-2.56 8.32-0.326-0.445-0.593-0.925-0.8-1.44-0.32-0.213-0.64-0.213-0.96 0-0.98 0.706-1.62 1.613-1.92 2.72 0.96 0.213 1.92 0.427 2.88 0.64 0.061 1.681-0.632 2.961-2.080 3.84-0.366-0.938-0.633-1.898-0.8-2.88-1.329 0.471-2.396 1.324-3.2 2.56 0.452 0.418 0.985 0.685 1.6 0.8-1.221 0.075-2.394 0.342-3.52 0.8-0.572-0.755-0.892-1.608-0.96-2.56-1.46 0.228-2.526 1.028-3.2 2.4 0.687 0.711 1.54 1.084 2.56 1.12-0.419 1.717-0.899 3.424-1.44 5.12-0.366-0.938-0.633-1.898-0.8-2.88-0.337-0.048-0.657 0.006-0.96 0.16-0.598 0.653-1.238 1.239-1.92 1.76 0 0.32 0 0.64 0 0.96 1.024 0.448 2.090 0.768 3.2 0.96 0.192 1.11 0.512 2.176 0.96 3.2 0.32 0 0.64 0 0.96 0 0.521-0.682 1.107-1.322 1.76-1.92 0.154-0.303 0.208-0.623 0.16-0.96-0.9-0.104-1.753-0.371-2.56-0.8 0.475-1.489 1.008-2.929 1.6-4.32 0.341 0.704 0.555 1.451 0.64 2.24 1.329-0.471 2.396-1.324 3.2-2.56-0.776-0.526-1.629-0.9-2.56-1.12 1.578-0.397 3.178-0.664 4.8-0.8 0.213 0.96 0.427 1.92 0.64 2.88 1.329-0.471 2.396-1.324 3.2-2.56-0.693-0.463-1.44-0.837-2.24-1.12 0.79-0.781 1.377-1.688 1.76-2.72 0.26 0.619 0.42 1.259 0.48 1.92 1.107-0.3 2.014-0.94 2.72-1.92 0.213-0.32 0.213-0.64 0-0.96-0.515-0.207-0.995-0.474-1.44-0.8 2.251-0.662 4.491-1.355 6.72-2.080 0.107 0.107 0.213 0.213 0.32 0.32-2.412 5.787-5.559 11.12-9.44 16-0.427 0.441-0.48 0.868-0.16 1.28 0.213 0 0.427 0 0.64 0 2.473-3.277 4.766-6.69 6.88-10.24 1.466-2.535 2.586-5.202 3.36-8 2.045-0.468 4.071-1.002 6.080-1.6-0.103-1.662 0.004-3.262 0.32-4.8 0-2.453 0-4.907 0-7.36-2.347 0-4.693 0-7.040 0zM24.48 0.8c1.816-0.053 3.63 0 5.44 0.16-1.12 1.12-2.24 2.24-3.36 3.36-1.263-1.262-2.703-2.276-4.32-3.040 0.811-0.060 1.558-0.22 2.24-0.48zM30.56 1.76c0.397 2.517 0.343 5.077-0.16 7.68-0.764-1.617-1.778-3.057-3.040-4.32 1.132-1.078 2.199-2.198 3.2-3.36zM25.76 6.56c0.143 2.027-0.177 4.054-0.96 6.080-2.39 1.050-4.843 1.85-7.36 2.4 2.838-2.785 5.611-5.611 8.32-8.48zM27.040 6.56c1.217 1.359 2.283 2.853 3.2 4.48-1.448 0.714-2.941 1.194-4.48 1.44 0.752-1.895 1.178-3.868 1.28-5.92zM13.92 14.24c0.24 0.33 0.453 0.703 0.64 1.12-1.297 0.15-1.51-0.223-0.64-1.12zM16.16 17.12c1.369 0.128 1.529 0.555 0.48 1.28-0.38-0.34-0.54-0.767-0.48-1.28zM10.72 18.72c0.24 0.33 0.453 0.703 0.64 1.12-1.297 0.15-1.51-0.223-0.64-1.12zM4.64 20.32c0.24 0.33 0.453 0.703 0.64 1.12-1.297 0.15-1.51-0.223-0.64-1.12zM12.96 22.24c1.318-0.332 1.478-0.012 0.48 0.96-0.074-0.396-0.234-0.716-0.48-0.96zM5.92 23.84c-0.010-0.319 0.15-0.532 0.48-0.64 0.523 0.121 1.003 0.334 1.44 0.64-0.098 0.259-0.258 0.472-0.48 0.64-0.336-0.514-0.816-0.727-1.44-0.64zM1.76 26.4c0.567 0.261 0.727 0.687 0.48 1.28-0.342-0.221-0.715-0.381-1.12-0.48 0.282-0.227 0.495-0.493 0.64-0.8zM4 29.6c1.318-0.332 1.478-0.012 0.48 0.96-0.074-0.396-0.234-0.716-0.48-0.96z"></path>
</symbol>
<symbol id="icon-reading" viewBox="0 0 32 32">
<path fill="#fefffe" style="fill: var(--color1, #fefffe)" opacity="0.723" d="M13.6 1.76c-2.246 1.023-4.166 2.516-5.76 4.48 0.589 0.43 1.069 0.963 1.44 1.6 0.107 1.813 0.213 3.627 0.32 5.44 0.888 0.743 1.368 1.703 1.44 2.88-1.586 0.318-3.186 0.425-4.8 0.32 0.106 2.25-0.001 4.49-0.32 6.72-1.74 1.028-2.327 2.522-1.76 4.48 0.997 1.828 2.33 2.202 4 1.12 1.92-0.213 3.84-0.213 5.76 0 1.28 1.067 2.56 1.067 3.84 0 1.92-0.213 3.84-0.213 5.76 0 0.837 0.945 1.797 1.052 2.88 0.32 1.853-2.192 1.639-4.166-0.64-5.92-0.319-2.23-0.426-4.47-0.32-6.72-1.614 0.105-3.214-0.002-4.8-0.32 0.072-1.177 0.552-2.137 1.44-2.88 0.301-2.806 0.194-5.58-0.32-8.32-2.208-2.357-4.928-3.423-8.16-3.2zM14.56 2.72c1.428-0.112 2.601 0.368 3.52 1.44 2.519 0.385 3.532 1.825 3.040 4.32-0.859-2.911-2.512-3.498-4.96-1.76-2.436-0.188-4.303 0.719-5.6 2.72-0.107-0.853-0.213-1.707-0.32-2.56-0.267-0.267-0.533-0.533-0.8-0.8 1.465-1.529 3.171-2.65 5.12-3.36zM18.4 6.88c0.624 0.25 1.104 0.677 1.44 1.28 0.16 1.276 0.213 2.556 0.16 3.84 0.515-0.13 0.942-0.13 1.28 0-0.184 0.656-0.611 0.976-1.28 0.96 0.048 0.994-0.112 1.954-0.48 2.88-1.169 0.503-2.396 0.93-3.68 1.28-1.036-0.395-2.102-0.662-3.2-0.8-0.777-0.973-1.097-2.093-0.96-3.36-0.669 0.016-1.095-0.304-1.28-0.96 0.338-0.13 0.765-0.13 1.28 0-0.344-1.643 0.19-2.87 1.6-3.68 1.608-0.294 3.208-0.614 4.8-0.96 0.178-0.122 0.285-0.282 0.32-0.48zM14.88 18.4c0.64 0 1.28 0 1.92 0 0.038 0.348 0.252 0.561 0.64 0.64 0.759-0.276 0.759-0.649 0-1.12 0.107-0.107 0.213-0.213 0.32-0.32 2.237-0.16 4.477-0.213 6.72-0.16 0.106 2.463-0.001 4.916-0.32 7.36-1.27 0.467-1.59 1.32-0.96 2.56-2.479 0.173-4.932 0.493-7.36 0.96-2.428-0.467-4.881-0.787-7.36-0.96 0.63-1.24 0.31-2.093-0.96-2.56-0.319-2.444-0.426-4.897-0.32-7.36 2.243-0.053 4.483 0 6.72 0.16 0.107 0.107 0.213 0.213 0.32 0.32-0.759 0.471-0.759 0.844 0 1.12 0.388-0.079 0.602-0.292 0.64-0.64zM5.92 24.48c0.177 0.764 0.657 1.298 1.44 1.6 0.006 0.735-0.048 1.482-0.16 2.24-1.809-0.142-2.396-1.102-1.76-2.88 0.164-0.329 0.324-0.648 0.48-0.96zM25.44 24.48c0.897 0.865 1.164 1.932 0.8 3.2-0.507 0.436-1.094 0.649-1.76 0.64 0.021-0.608-0.085-1.195-0.32-1.76 0.184-0.549 0.558-0.922 1.12-1.12 0.154-0.303 0.208-0.623 0.16-0.96z"></path>
<path fill="#fefffe" style="fill: var(--color1, #fefffe)" opacity="0.673" d="M12.96 11.36c0.427 0 0.853 0 1.28 0 0 0.427 0 0.853 0 1.28-0.427 0-0.853 0-1.28 0 0-0.427 0-0.853 0-1.28z"></path>
<path fill="#fefffe" style="fill: var(--color1, #fefffe)" opacity="0.673" d="M17.44 11.36c0.427 0 0.853 0 1.28 0 0 0.427 0 0.853 0 1.28-0.427 0-0.853 0-1.28 0 0-0.427 0-0.853 0-1.28z"></path>
<path fill="#fefffe" style="fill: var(--color1, #fefffe)" opacity="0.479" d="M13.92 19.68c0.479-0.027 0.799 0.186 0.96 0.64-0.427 0.427-0.853 0.427-1.28 0 0.116-0.219 0.223-0.432 0.32-0.64z"></path>
<path fill="#fefffe" style="fill: var(--color1, #fefffe)" opacity="0.479" d="M17.12 19.68c0.479-0.027 0.799 0.186 0.96 0.64-0.427 0.427-0.853 0.427-1.28 0 0.116-0.219 0.223-0.432 0.32-0.64z"></path>
<path fill="#fefffe" style="fill: var(--color1, #fefffe)" opacity="0.479" d="M13.92 21.28c0.479-0.027 0.799 0.186 0.96 0.64-0.427 0.427-0.853 0.427-1.28 0 0.116-0.219 0.223-0.432 0.32-0.64z"></path>
<path fill="#fefffe" style="fill: var(--color1, #fefffe)" opacity="0.479" d="M17.12 21.28c0.479-0.027 0.799 0.186 0.96 0.64-0.427 0.427-0.853 0.427-1.28 0 0.116-0.219 0.223-0.432 0.32-0.64z"></path>
<path fill="#fefffe" style="fill: var(--color1, #fefffe)" opacity="0.479" d="M13.92 22.88c0.479-0.027 0.799 0.186 0.96 0.64-0.427 0.427-0.853 0.427-1.28 0 0.116-0.219 0.223-0.432 0.32-0.64z"></path>
<path fill="#fefffe" style="fill: var(--color1, #fefffe)" opacity="0.479" d="M17.12 22.88c0.479-0.027 0.799 0.186 0.96 0.64-0.427 0.427-0.853 0.427-1.28 0 0.116-0.219 0.223-0.432 0.32-0.64z"></path>
<path fill="#fefffe" style="fill: var(--color1, #fefffe)" opacity="0.479" d="M13.92 24.48c0.479-0.027 0.799 0.186 0.96 0.64-0.427 0.427-0.853 0.427-1.28 0 0.116-0.219 0.223-0.432 0.32-0.64z"></path>
<path fill="#fefffe" style="fill: var(--color1, #fefffe)" opacity="0.479" d="M17.12 24.48c0.479-0.027 0.799 0.186 0.96 0.64-0.427 0.427-0.853 0.427-1.28 0 0.116-0.219 0.223-0.432 0.32-0.64z"></path>
<path fill="#fefffe" style="fill: var(--color1, #fefffe)" opacity="0.479" d="M13.92 26.080c0.479-0.027 0.799 0.186 0.96 0.64-0.427 0.427-0.853 0.427-1.28 0 0.116-0.219 0.223-0.432 0.32-0.64z"></path>
<path fill="#fefffe" style="fill: var(--color1, #fefffe)" opacity="0.479" d="M17.12 26.080c0.479-0.027 0.799 0.186 0.96 0.64-0.427 0.427-0.853 0.427-1.28 0 0.116-0.219 0.223-0.432 0.32-0.64z"></path>
</symbol>
</defs>
</svg>
